<svg width="570" height="536" viewBox="0 0 570 536" fill="none" xmlns="http://www.w3.org/2000/svg">
<line x1="11.4675" y1="142.24" x2="231.849" y2="262.892" stroke="url(#paint0_linear_2507_222)" stroke-width="10"/>
<line x1="6.67604" y1="383.538" x2="227.058" y2="263.584" stroke="url(#paint1_linear_2507_222)" stroke-width="10"/>
<line y1="262.278" x2="229.448" y2="262.278" stroke="url(#paint2_linear_2507_222)" stroke-width="10"/>
<line x1="272.686" y1="262.975" x2="447.038" y2="262.975" stroke="url(#paint3_linear_2507_222)" stroke-width="10"/>
<line x1="244.453" y1="214.788" x2="441.122" y2="105.295" stroke="url(#paint4_linear_2507_222)" stroke-width="10"/>
<line x1="255.762" y1="303.459" x2="439.878" y2="415.742" stroke="url(#paint5_linear_2507_222)" stroke-width="10"/>
<g filter="url(#filter0_d_2507_222)">
<path d="M495.162 19L545.292 47.9425V105.828L495.162 134.77L445.032 105.828V47.9425L495.162 19Z" fill="white"/>
<path d="M497.162 15.5359L495.162 14.3812L493.162 15.5359L443.032 44.4784L441.032 45.6331V47.9425V105.828V108.137L443.032 109.292L493.162 138.234L495.162 139.389L497.162 138.234L547.292 109.292L549.292 108.137V105.828V47.9425V45.6331L547.292 44.4784L497.162 15.5359Z" stroke="url(#paint6_linear_2507_222)" stroke-width="8"/>
</g>
<path d="M487.946 81.3963C487.246 81.3963 486.616 81.2763 486.056 81.0363C485.496 80.7863 485.056 80.4363 484.736 79.9863C484.416 79.5363 484.256 79.0113 484.256 78.4113H486.086C486.126 78.8613 486.301 79.2313 486.611 79.5213C486.931 79.8113 487.376 79.9563 487.946 79.9563C488.536 79.9563 488.996 79.8163 489.326 79.5363C489.656 79.2463 489.821 78.8763 489.821 78.4263C489.821 78.0763 489.716 77.7913 489.506 77.5713C489.306 77.3513 489.051 77.1813 488.741 77.0613C488.441 76.9413 488.021 76.8113 487.481 76.6713C486.801 76.4913 486.246 76.3113 485.816 76.1313C485.396 75.9413 485.036 75.6513 484.736 75.2613C484.436 74.8713 484.286 74.3513 484.286 73.7013C484.286 73.1013 484.436 72.5763 484.736 72.1263C485.036 71.6763 485.456 71.3313 485.996 71.0913C486.536 70.8513 487.161 70.7313 487.871 70.7313C488.881 70.7313 489.706 70.9863 490.346 71.4963C490.996 71.9963 491.356 72.6863 491.426 73.5663H489.536C489.506 73.1863 489.326 72.8613 488.996 72.5913C488.666 72.3213 488.231 72.1863 487.691 72.1863C487.201 72.1863 486.801 72.3113 486.491 72.5613C486.181 72.8113 486.026 73.1713 486.026 73.6413C486.026 73.9613 486.121 74.2263 486.311 74.4363C486.511 74.6363 486.761 74.7963 487.061 74.9163C487.361 75.0363 487.771 75.1663 488.291 75.3063C488.981 75.4963 489.541 75.6863 489.971 75.8763C490.411 76.0663 490.781 76.3613 491.081 76.7613C491.391 77.1513 491.546 77.6763 491.546 78.3363C491.546 78.8663 491.401 79.3663 491.111 79.8363C490.831 80.3063 490.416 80.6863 489.866 80.9763C489.326 81.2563 488.686 81.3963 487.946 81.3963ZM499.849 79.1613H495.484L494.734 81.2913H492.949L496.684 70.8513H498.664L502.399 81.2913H500.599L499.849 79.1613ZM499.369 77.7663L497.674 72.9213L495.964 77.7663H499.369ZM511.313 73.9713C511.313 74.5013 511.188 75.0013 510.938 75.4713C510.688 75.9413 510.288 76.3263 509.738 76.6263C509.188 76.9163 508.483 77.0613 507.623 77.0613H505.733V81.2913H504.023V70.8663H507.623C508.423 70.8663 509.098 71.0063 509.648 71.2863C510.208 71.5563 510.623 71.9263 510.893 72.3963C511.173 72.8663 511.313 73.3913 511.313 73.9713ZM507.623 75.6663C508.273 75.6663 508.758 75.5213 509.078 75.2313C509.398 74.9313 509.558 74.5113 509.558 73.9713C509.558 72.8313 508.913 72.2613 507.623 72.2613H505.733V75.6663H507.623Z" fill="black"/>
<g filter="url(#filter1_d_2507_222)">
<path d="M495.162 204.511L545.292 233.454V291.339L495.162 320.281L445.032 291.339V233.454L495.162 204.511Z" fill="white"/>
<path d="M497.162 201.047L495.162 199.892L493.162 201.047L443.032 229.989L441.032 231.144V233.454V291.339V293.648L443.032 294.803L493.162 323.745L495.162 324.9L497.162 323.745L547.292 294.803L549.292 293.648V291.339V233.454V231.144L547.292 229.989L497.162 201.047Z" stroke="url(#paint7_linear_2507_222)" stroke-width="8"/>
</g>
<path d="M483.583 268.179C482.883 268.179 482.253 268.059 481.693 267.819C481.133 267.569 480.693 267.219 480.373 266.769C480.053 266.319 479.893 265.794 479.893 265.194H481.723C481.763 265.644 481.938 266.014 482.248 266.304C482.568 266.594 483.013 266.739 483.583 266.739C484.173 266.739 484.633 266.599 484.963 266.319C485.293 266.029 485.458 265.659 485.458 265.209C485.458 264.859 485.353 264.574 485.143 264.354C484.943 264.134 484.688 263.964 484.378 263.844C484.078 263.724 483.658 263.594 483.118 263.454C482.438 263.274 481.883 263.094 481.453 262.914C481.033 262.724 480.673 262.434 480.373 262.044C480.073 261.654 479.923 261.134 479.923 260.484C479.923 259.884 480.073 259.359 480.373 258.909C480.673 258.459 481.093 258.114 481.633 257.874C482.173 257.634 482.798 257.514 483.508 257.514C484.518 257.514 485.343 257.769 485.983 258.279C486.633 258.779 486.993 259.469 487.063 260.349H485.173C485.143 259.969 484.963 259.644 484.633 259.374C484.303 259.104 483.868 258.969 483.328 258.969C482.838 258.969 482.438 259.094 482.128 259.344C481.818 259.594 481.663 259.954 481.663 260.424C481.663 260.744 481.758 261.009 481.948 261.219C482.148 261.419 482.398 261.579 482.698 261.699C482.998 261.819 483.408 261.949 483.928 262.089C484.618 262.279 485.178 262.469 485.608 262.659C486.048 262.849 486.418 263.144 486.718 263.544C487.028 263.934 487.183 264.459 487.183 265.119C487.183 265.649 487.038 266.149 486.748 266.619C486.468 267.089 486.053 267.469 485.503 267.759C484.963 268.039 484.323 268.179 483.583 268.179ZM495.486 265.944H491.121L490.371 268.074H488.586L492.321 257.634H494.301L498.036 268.074H496.236L495.486 265.944ZM495.006 264.549L493.311 259.704L491.601 264.549H495.006ZM505.075 268.074L502.675 263.904H501.37V268.074H499.66V257.649H503.26C504.06 257.649 504.735 257.789 505.285 258.069C505.845 258.349 506.26 258.724 506.53 259.194C506.81 259.664 506.95 260.189 506.95 260.769C506.95 261.449 506.75 262.069 506.35 262.629C505.96 263.179 505.355 263.554 504.535 263.754L507.115 268.074H505.075ZM501.37 262.539H503.26C503.9 262.539 504.38 262.379 504.7 262.059C505.03 261.739 505.195 261.309 505.195 260.769C505.195 260.229 505.035 259.809 504.715 259.509C504.395 259.199 503.91 259.044 503.26 259.044H501.37V262.539Z" fill="black"/>
<g filter="url(#filter2_d_2507_222)">
<path d="M490.277 503.7L440.147 474.757L440.147 416.872L490.277 387.93L540.407 416.872L540.407 474.757L490.277 503.7Z" fill="white"/>
<path d="M488.277 507.164L490.277 508.319L492.277 507.164L542.407 478.222L544.407 477.067L544.407 474.757L544.407 416.872L544.407 414.563L542.407 413.408L492.277 384.466L490.277 383.311L488.277 384.466L438.147 413.408L436.147 414.563L436.147 416.872L436.147 474.757L436.147 477.067L438.147 478.222L488.277 507.164Z" stroke="url(#paint8_linear_2507_222)" stroke-width="8"/>
</g>
<path d="M470.805 445.691C470.805 446.221 470.68 446.721 470.43 447.191C470.18 447.661 469.78 448.046 469.23 448.346C468.68 448.636 467.975 448.781 467.115 448.781H465.225V453.011H463.515V442.586H467.115C467.915 442.586 468.59 442.726 469.14 443.006C469.7 443.276 470.115 443.646 470.385 444.116C470.665 444.586 470.805 445.111 470.805 445.691ZM467.115 447.386C467.765 447.386 468.25 447.241 468.57 446.951C468.89 446.651 469.05 446.231 469.05 445.691C469.05 444.551 468.405 443.981 467.115 443.981H465.225V447.386H467.115ZM477.191 453.116C476.221 453.116 475.326 452.891 474.506 452.441C473.696 451.981 473.051 451.346 472.571 450.536C472.101 449.716 471.866 448.796 471.866 447.776C471.866 446.756 472.101 445.841 472.571 445.031C473.051 444.221 473.696 443.591 474.506 443.141C475.326 442.681 476.221 442.451 477.191 442.451C478.171 442.451 479.066 442.681 479.876 443.141C480.696 443.591 481.341 444.221 481.811 445.031C482.281 445.841 482.516 446.756 482.516 447.776C482.516 448.796 482.281 449.716 481.811 450.536C481.341 451.346 480.696 451.981 479.876 452.441C479.066 452.891 478.171 453.116 477.191 453.116ZM477.191 451.631C477.881 451.631 478.496 451.476 479.036 451.166C479.576 450.846 479.996 450.396 480.296 449.816C480.606 449.226 480.761 448.546 480.761 447.776C480.761 447.006 480.606 446.331 480.296 445.751C479.996 445.171 479.576 444.726 479.036 444.416C478.496 444.106 477.881 443.951 477.191 443.951C476.501 443.951 475.886 444.106 475.346 444.416C474.806 444.726 474.381 445.171 474.071 445.751C473.771 446.331 473.621 447.006 473.621 447.776C473.621 448.546 473.771 449.226 474.071 449.816C474.381 450.396 474.806 450.846 475.346 451.166C475.886 451.476 476.501 451.631 477.191 451.631ZM490.483 450.881H486.118L485.368 453.011H483.583L487.318 442.571H489.298L493.033 453.011H491.233L490.483 450.881ZM490.003 449.486L488.308 444.641L486.598 449.486H490.003ZM502.712 453.011L501.422 451.721C500.922 452.221 500.377 452.596 499.787 452.846C499.197 453.086 498.537 453.206 497.807 453.206C497.067 453.206 496.412 453.076 495.842 452.816C495.272 452.556 494.832 452.186 494.522 451.706C494.212 451.216 494.057 450.651 494.057 450.011C494.057 449.291 494.262 448.651 494.672 448.091C495.082 447.521 495.692 447.071 496.502 446.741C496.212 446.391 496.007 446.066 495.887 445.766C495.767 445.456 495.707 445.116 495.707 444.746C495.707 444.286 495.822 443.876 496.052 443.516C496.292 443.156 496.632 442.871 497.072 442.661C497.512 442.451 498.022 442.346 498.602 442.346C499.192 442.346 499.692 442.461 500.102 442.691C500.522 442.911 500.832 443.216 501.032 443.606C501.242 443.996 501.327 444.431 501.287 444.911H499.577C499.587 444.541 499.497 444.256 499.307 444.056C499.117 443.846 498.857 443.741 498.527 443.741C498.197 443.741 497.927 443.841 497.717 444.041C497.517 444.231 497.417 444.466 497.417 444.746C497.417 445.016 497.492 445.286 497.642 445.556C497.802 445.816 498.077 446.156 498.467 446.576L501.227 449.321L502.292 447.566H504.137L502.787 449.876L502.412 450.491L504.947 453.011H502.712ZM497.807 451.751C498.747 451.751 499.577 451.366 500.297 450.596L497.537 447.821C496.357 448.291 495.767 449.001 495.767 449.951C495.767 450.461 495.957 450.891 496.337 451.241C496.717 451.581 497.207 451.751 497.807 451.751ZM517.049 442.586V453.011H515.339V445.871L512.159 453.011H510.974L507.779 445.871V453.011H506.069V442.586H507.914L511.574 450.761L515.219 442.586H517.049Z" fill="black"/>
<path d="M213.151 200.598C229.544 200.526 245.294 206.969 256.937 218.51C268.579 230.051 275.161 245.744 275.232 262.137C275.304 278.53 268.861 294.28 257.32 305.923C245.779 317.565 230.086 324.146 213.693 324.218L213.422 262.408L213.151 200.598Z" fill="url(#paint9_linear_2507_222)"/>
<g filter="url(#filter3_d_2507_222)">
<circle cx="212.897" cy="262.794" r="49.5161" fill="white"/>
</g>
<circle cx="212.71" cy="262.794" r="40.4498" stroke="#C06CB1" stroke-width="2" stroke-linecap="round" stroke-dasharray="5 5"/>
<g filter="url(#filter4_f_2507_222)">
<rect x="237.801" y="247.245" width="69.3117" height="58.1659" transform="rotate(50.5177 237.801 247.245)" fill="url(#paint10_linear_2507_222)" fill-opacity="0.3"/>
</g>
<circle cx="212.397" cy="263.479" r="33.3135" transform="rotate(135 212.397 263.479)" fill="url(#paint11_linear_2507_222)"/>
<circle cx="212.398" cy="263.479" r="31.4606" transform="rotate(-60 212.398 263.479)" fill="url(#paint12_linear_2507_222)"/>
<defs>
<filter id="filter0_d_2507_222" x="421.033" y="0.76239" width="148.26" height="166.245" filterUnits="userSpaceOnUse" color-interpolation-filters="sRGB">
<feFlood flood-opacity="0" result="BackgroundImageFix"/>
<feColorMatrix in="SourceAlpha" type="matrix" values="0 0 0 0 0 0 0 0 0 0 0 0 0 0 0 0 0 0 127 0" result="hardAlpha"/>
<feOffset dy="7"/>
<feGaussianBlur stdDeviation="8"/>
<feColorMatrix type="matrix" values="0 0 0 0 0 0 0 0 0 0 0 0 0 0 0 0 0 0 0.19 0"/>
<feBlend mode="normal" in2="BackgroundImageFix" result="effect1_dropShadow_2507_222"/>
<feBlend mode="normal" in="SourceGraphic" in2="effect1_dropShadow_2507_222" result="shape"/>
</filter>
<filter id="filter1_d_2507_222" x="421.033" y="186.273" width="148.26" height="166.245" filterUnits="userSpaceOnUse" color-interpolation-filters="sRGB">
<feFlood flood-opacity="0" result="BackgroundImageFix"/>
<feColorMatrix in="SourceAlpha" type="matrix" values="0 0 0 0 0 0 0 0 0 0 0 0 0 0 0 0 0 0 127 0" result="hardAlpha"/>
<feOffset dy="7"/>
<feGaussianBlur stdDeviation="8"/>
<feColorMatrix type="matrix" values="0 0 0 0 0 0 0 0 0 0 0 0 0 0 0 0 0 0 0.19 0"/>
<feBlend mode="normal" in2="BackgroundImageFix" result="effect1_dropShadow_2507_222"/>
<feBlend mode="normal" in="SourceGraphic" in2="effect1_dropShadow_2507_222" result="shape"/>
</filter>
<filter id="filter2_d_2507_222" x="416.146" y="369.692" width="148.26" height="166.245" filterUnits="userSpaceOnUse" color-interpolation-filters="sRGB">
<feFlood flood-opacity="0" result="BackgroundImageFix"/>
<feColorMatrix in="SourceAlpha" type="matrix" values="0 0 0 0 0 0 0 0 0 0 0 0 0 0 0 0 0 0 127 0" result="hardAlpha"/>
<feOffset dy="7"/>
<feGaussianBlur stdDeviation="8"/>
<feColorMatrix type="matrix" values="0 0 0 0 0 0 0 0 0 0 0 0 0 0 0 0 0 0 0.19 0"/>
<feBlend mode="normal" in2="BackgroundImageFix" result="effect1_dropShadow_2507_222"/>
<feBlend mode="normal" in="SourceGraphic" in2="effect1_dropShadow_2507_222" result="shape"/>
</filter>
<filter id="filter3_d_2507_222" x="151.381" y="201.278" width="123.031" height="123.032" filterUnits="userSpaceOnUse" color-interpolation-filters="sRGB">
<feFlood flood-opacity="0" result="BackgroundImageFix"/>
<feColorMatrix in="SourceAlpha" type="matrix" values="0 0 0 0 0 0 0 0 0 0 0 0 0 0 0 0 0 0 127 0" result="hardAlpha"/>
<feOffset/>
<feGaussianBlur stdDeviation="6"/>
<feColorMatrix type="matrix" values="0 0 0 0 0 0 0 0 0 0 0 0 0 0 0 0 0 0 0.2 0"/>
<feBlend mode="normal" in2="BackgroundImageFix" result="effect1_dropShadow_2507_222"/>
<feBlend mode="normal" in="SourceGraphic" in2="effect1_dropShadow_2507_222" result="shape"/>
</filter>
<filter id="filter4_f_2507_222" x="167.906" y="222.245" width="138.965" height="140.48" filterUnits="userSpaceOnUse" color-interpolation-filters="sRGB">
<feFlood flood-opacity="0" result="BackgroundImageFix"/>
<feBlend mode="normal" in="SourceGraphic" in2="BackgroundImageFix" result="shape"/>
<feGaussianBlur stdDeviation="12.5" result="effect1_foregroundBlur_2507_222"/>
</filter>
<linearGradient id="paint0_linear_2507_222" x1="238.009" y1="272.512" x2="8.94582" y2="146.846" gradientUnits="userSpaceOnUse">
<stop stop-color="#FC5C7D"/>
<stop offset="0.496365" stop-color="#9C75D0"/>
<stop offset="1" stop-color="#6F81F7"/>
</linearGradient>
<linearGradient id="paint1_linear_2507_222" x1="238.469" y1="263.612" x2="9.18636" y2="388.151" gradientUnits="userSpaceOnUse">
<stop stop-color="#FC5C7D"/>
<stop offset="0.496365" stop-color="#9C75D0"/>
<stop offset="1" stop-color="#6F81F7"/>
</linearGradient>
<linearGradient id="paint2_linear_2507_222" x1="238.601" y1="267.758" x2="-0.000231499" y2="267.567" gradientUnits="userSpaceOnUse">
<stop stop-color="#FC5C7D"/>
<stop offset="0.496365" stop-color="#9C75D0"/>
<stop offset="1" stop-color="#6F81F7"/>
</linearGradient>
<linearGradient id="paint3_linear_2507_222" x1="453.993" y1="268.455" x2="272.685" y2="268.345" gradientUnits="userSpaceOnUse">
<stop stop-color="#7280F5"/>
<stop offset="0.496365" stop-color="#9C75D0"/>
<stop offset="1" stop-color="#9F70C5"/>
</linearGradient>
<linearGradient id="paint4_linear_2507_222" x1="451.633" y1="105.715" x2="247.029" y2="219.415" gradientUnits="userSpaceOnUse">
<stop stop-color="#7380F4"/>
<stop offset="0.496365" stop-color="#9C75D0"/>
<stop offset="1" stop-color="#C66AAC"/>
</linearGradient>
<linearGradient id="paint5_linear_2507_222" x1="444.369" y1="424.9" x2="252.996" y2="307.993" gradientUnits="userSpaceOnUse">
<stop stop-color="#ED608A"/>
<stop offset="0.496365" stop-color="#9C75D0"/>
<stop offset="1" stop-color="#8B78DC"/>
</linearGradient>
<linearGradient id="paint6_linear_2507_222" x1="557.666" y1="74.5759" x2="437.277" y2="74.5755" gradientUnits="userSpaceOnUse">
<stop stop-color="#FC5C7D"/>
<stop offset="0.496365" stop-color="#9C75D0"/>
<stop offset="1" stop-color="#6F81F7"/>
</linearGradient>
<linearGradient id="paint7_linear_2507_222" x1="557.666" y1="260.087" x2="437.277" y2="260.087" gradientUnits="userSpaceOnUse">
<stop stop-color="#FC5C7D"/>
<stop offset="0.496365" stop-color="#9C75D0"/>
<stop offset="1" stop-color="#6F81F7"/>
</linearGradient>
<linearGradient id="paint8_linear_2507_222" x1="427.774" y1="448.124" x2="548.162" y2="448.124" gradientUnits="userSpaceOnUse">
<stop stop-color="#FC5C7D"/>
<stop offset="0.496365" stop-color="#9C75D0"/>
<stop offset="1" stop-color="#6F81F7"/>
</linearGradient>
<linearGradient id="paint9_linear_2507_222" x1="234.6" y1="122.392" x2="232.176" y2="345.699" gradientUnits="userSpaceOnUse">
<stop stop-color="#D7669E"/>
<stop offset="0.0001" stop-color="#FC5C7D"/>
<stop offset="1" stop-color="#6F81F7"/>
</linearGradient>
<linearGradient id="paint10_linear_2507_222" x1="247.665" y1="275.305" x2="283.875" y2="272.483" gradientUnits="userSpaceOnUse">
<stop stop-color="#A5A5A5"/>
<stop offset="1" stop-color="#A5A5A5" stop-opacity="0"/>
</linearGradient>
<linearGradient id="paint11_linear_2507_222" x1="197.644" y1="233.378" x2="238.534" y2="293.614" gradientUnits="userSpaceOnUse">
<stop stop-color="#E8E8E8"/>
<stop offset="1" stop-color="#C4C4C4" stop-opacity="0"/>
</linearGradient>
<linearGradient id="paint12_linear_2507_222" x1="220.339" y1="232.5" x2="203.682" y2="277.877" gradientUnits="userSpaceOnUse">
<stop stop-color="#ECECEC"/>
<stop offset="1" stop-color="white"/>
</linearGradient>
</defs>
</svg>
