<svg width="634" height="421" viewBox="0 0 634 421" fill="none" xmlns="http://www.w3.org/2000/svg">
<g filter="url(#filter0_d_2507_189)">
<path d="M75.0156 161.017H402.878C419.045 161.017 434.549 166.27 445.981 175.621C457.413 184.971 463.835 197.653 463.835 210.877C463.835 224.101 457.413 236.783 445.981 246.134C434.549 255.485 419.045 260.738 402.878 260.738H75.0156V161.017Z" fill="white"/>
</g>
<path d="M150.67 221.397C150.67 236.005 146.251 250.285 137.973 262.431C129.695 274.577 117.929 284.044 104.163 289.634C90.3971 295.225 75.2494 296.687 60.6355 293.837C46.0216 290.987 32.5978 283.953 22.0618 273.623C11.5257 263.294 4.35059 250.134 1.4437 235.806C-1.46318 221.479 0.0287358 206.628 5.7308 193.132C11.4329 179.636 21.089 168.101 33.4781 159.985C45.8671 151.869 60.4327 147.537 75.3329 147.537V221.282L150.67 221.397Z" fill="url(#paint0_linear_2507_189)"/>
<path d="M75.3325 280.485C108.782 280.485 135.897 253.699 135.897 220.658C135.897 187.617 108.782 160.832 75.3325 160.832C41.8834 160.832 14.7676 187.617 14.7676 220.658C14.7676 253.699 41.8834 280.485 75.3325 280.485Z" fill="white"/>
<path d="M121.79 141.103C114.824 141.774 108.288 144.75 103.231 149.553C98.1747 154.356 94.8909 160.708 93.9075 167.587C93.9075 167.587 93.9075 167.841 93.9075 167.956C93.5323 171.275 91.8633 174.317 89.2577 176.43C86.6521 178.543 83.317 179.559 79.9664 179.26C71.2871 178.323 62.5287 180.083 54.8996 184.297C47.2706 188.512 41.1471 194.974 37.374 202.791C33.601 210.608 32.3644 219.395 33.835 227.939C35.3056 236.484 39.4109 244.365 45.5843 250.494C51.7577 256.624 59.6949 260.7 68.3006 262.16C76.9064 263.62 85.7564 262.392 93.6295 258.646C101.503 254.9 108.011 248.82 112.256 241.245C116.5 233.67 118.273 224.974 117.328 216.357C117.022 213.029 118.043 209.714 120.172 207.126C122.301 204.537 125.368 202.882 128.714 202.515H129.085C137.288 201.554 144.769 197.398 149.885 190.96C155.001 184.522 157.331 176.331 156.364 168.187C155.396 160.043 151.21 152.615 144.726 147.535C138.242 142.456 129.992 140.142 121.79 141.103Z" fill="url(#paint1_linear_2507_189)"/>
<path d="M139.723 187.592C148.276 179.208 148.276 165.613 139.723 157.228C131.17 148.844 117.302 148.844 108.749 157.228C100.195 165.613 100.195 179.208 108.749 187.592C117.302 195.977 131.17 195.977 139.723 187.592Z" fill="white"/>
<path d="M187.483 204.272V213.29C187.483 214.406 187.141 215.288 186.457 215.936C185.785 216.584 184.897 216.908 183.793 216.908C182.689 216.908 181.795 216.584 181.111 215.936C180.439 215.288 180.103 214.406 180.103 213.29H182.173C182.185 213.842 182.323 214.28 182.587 214.604C182.863 214.928 183.265 215.09 183.793 215.09C184.321 215.09 184.723 214.928 184.999 214.604C185.275 214.268 185.413 213.83 185.413 213.29V204.272H187.483ZM195.123 216.944C194.187 216.944 193.341 216.734 192.585 216.314C191.829 215.882 191.235 215.282 190.803 214.514C190.371 213.734 190.155 212.834 190.155 211.814C190.155 210.806 190.377 209.912 190.821 209.132C191.265 208.352 191.871 207.752 192.639 207.332C193.407 206.912 194.265 206.702 195.213 206.702C196.161 206.702 197.019 206.912 197.787 207.332C198.555 207.752 199.161 208.352 199.605 209.132C200.049 209.912 200.271 210.806 200.271 211.814C200.271 212.822 200.043 213.716 199.587 214.496C199.131 215.276 198.507 215.882 197.715 216.314C196.935 216.734 196.071 216.944 195.123 216.944ZM195.123 215.162C195.651 215.162 196.143 215.036 196.599 214.784C197.067 214.532 197.445 214.154 197.733 213.65C198.021 213.146 198.165 212.534 198.165 211.814C198.165 211.094 198.027 210.488 197.751 209.996C197.475 209.492 197.109 209.114 196.653 208.862C196.197 208.61 195.705 208.484 195.177 208.484C194.649 208.484 194.157 208.61 193.701 208.862C193.257 209.114 192.903 209.492 192.639 209.996C192.375 210.488 192.243 211.094 192.243 211.814C192.243 212.882 192.513 213.71 193.053 214.298C193.605 214.874 194.295 215.162 195.123 215.162ZM203.343 205.55C202.971 205.55 202.659 205.424 202.407 205.172C202.155 204.92 202.029 204.608 202.029 204.236C202.029 203.864 202.155 203.552 202.407 203.3C202.659 203.048 202.971 202.922 203.343 202.922C203.703 202.922 204.009 203.048 204.261 203.3C204.513 203.552 204.639 203.864 204.639 204.236C204.639 204.608 204.513 204.92 204.261 205.172C204.009 205.424 203.703 205.55 203.343 205.55ZM204.351 206.864V216.782H202.299V206.864H204.351ZM212.049 206.702C212.829 206.702 213.525 206.864 214.137 207.188C214.761 207.512 215.247 207.992 215.595 208.628C215.943 209.264 216.117 210.032 216.117 210.932V216.782H214.083V211.238C214.083 210.35 213.861 209.672 213.417 209.204C212.973 208.724 212.367 208.484 211.599 208.484C210.831 208.484 210.219 208.724 209.763 209.204C209.319 209.672 209.097 210.35 209.097 211.238V216.782H207.045V206.864H209.097V207.998C209.433 207.59 209.859 207.272 210.375 207.044C210.903 206.816 211.461 206.702 212.049 206.702ZM221.129 208.538V214.028C221.129 214.4 221.213 214.67 221.381 214.838C221.561 214.994 221.861 215.072 222.281 215.072H223.541V216.782H221.921C220.997 216.782 220.289 216.566 219.797 216.134C219.305 215.702 219.059 215 219.059 214.028V208.538H217.889V206.864H219.059V204.398H221.129V206.864H223.541V208.538H221.129ZM237.65 214.226H232.412L231.512 216.782H229.37L233.852 204.254H236.228L240.71 216.782H238.55L237.65 214.226ZM237.074 212.552L235.04 206.738L232.988 212.552H237.074ZM251.641 206.864V216.782H249.589V215.612C249.265 216.02 248.839 216.344 248.311 216.584C247.795 216.812 247.243 216.926 246.655 216.926C245.875 216.926 245.173 216.764 244.549 216.44C243.937 216.116 243.451 215.636 243.091 215C242.743 214.364 242.569 213.596 242.569 212.696V206.864H244.603V212.39C244.603 213.278 244.825 213.962 245.269 214.442C245.713 214.91 246.319 215.144 247.087 215.144C247.855 215.144 248.461 214.91 248.905 214.442C249.361 213.962 249.589 213.278 249.589 212.39V206.864H251.641ZM256.742 208.538V214.028C256.742 214.4 256.826 214.67 256.994 214.838C257.174 214.994 257.474 215.072 257.894 215.072H259.154V216.782H257.534C256.61 216.782 255.902 216.566 255.41 216.134C254.918 215.702 254.672 215 254.672 214.028V208.538H253.502V206.864H254.672V204.398H256.742V206.864H259.154V208.538H256.742ZM266.175 206.702C266.931 206.702 267.603 206.864 268.191 207.188C268.791 207.512 269.259 207.992 269.595 208.628C269.943 209.264 270.117 210.032 270.117 210.932V216.782H268.083V211.238C268.083 210.35 267.861 209.672 267.417 209.204C266.973 208.724 266.367 208.484 265.599 208.484C264.831 208.484 264.219 208.724 263.763 209.204C263.319 209.672 263.097 210.35 263.097 211.238V216.782H261.045V203.462H263.097V208.016C263.445 207.596 263.883 207.272 264.411 207.044C264.951 206.816 265.539 206.702 266.175 206.702ZM277.037 216.944C276.101 216.944 275.255 216.734 274.499 216.314C273.743 215.882 273.149 215.282 272.717 214.514C272.285 213.734 272.069 212.834 272.069 211.814C272.069 210.806 272.291 209.912 272.735 209.132C273.179 208.352 273.785 207.752 274.553 207.332C275.321 206.912 276.179 206.702 277.127 206.702C278.075 206.702 278.933 206.912 279.701 207.332C280.469 207.752 281.075 208.352 281.519 209.132C281.963 209.912 282.185 210.806 282.185 211.814C282.185 212.822 281.957 213.716 281.501 214.496C281.045 215.276 280.421 215.882 279.629 216.314C278.849 216.734 277.985 216.944 277.037 216.944ZM277.037 215.162C277.565 215.162 278.057 215.036 278.513 214.784C278.981 214.532 279.359 214.154 279.647 213.65C279.935 213.146 280.079 212.534 280.079 211.814C280.079 211.094 279.941 210.488 279.665 209.996C279.389 209.492 279.023 209.114 278.567 208.862C278.111 208.61 277.619 208.484 277.091 208.484C276.563 208.484 276.071 208.61 275.615 208.862C275.171 209.114 274.817 209.492 274.553 209.996C274.289 210.488 274.157 211.094 274.157 211.814C274.157 212.882 274.427 213.71 274.967 214.298C275.519 214.874 276.209 215.162 277.037 215.162ZM286.265 208.304C286.565 207.8 286.961 207.41 287.453 207.134C287.957 206.846 288.551 206.702 289.235 206.702V208.826H288.713C287.909 208.826 287.297 209.03 286.877 209.438C286.469 209.846 286.265 210.554 286.265 211.562V216.782H284.213V206.864H286.265V208.304ZM292.165 205.55C291.793 205.55 291.481 205.424 291.229 205.172C290.977 204.92 290.851 204.608 290.851 204.236C290.851 203.864 290.977 203.552 291.229 203.3C291.481 203.048 291.793 202.922 292.165 202.922C292.525 202.922 292.831 203.048 293.083 203.3C293.335 203.552 293.461 203.864 293.461 204.236C293.461 204.608 293.335 204.92 293.083 205.172C292.831 205.424 292.525 205.55 292.165 205.55ZM293.173 206.864V216.782H291.121V206.864H293.173ZM297.686 215.108H302.186V216.782H295.31V215.108L299.828 208.538H295.31V206.864H302.186V208.538L297.686 215.108ZM303.656 211.778C303.656 210.782 303.86 209.9 304.268 209.132C304.688 208.364 305.252 207.77 305.96 207.35C306.68 206.918 307.472 206.702 308.336 206.702C309.116 206.702 309.794 206.858 310.37 207.17C310.958 207.47 311.426 207.848 311.774 208.304V206.864H313.844V216.782H311.774V215.306C311.426 215.774 310.952 216.164 310.352 216.476C309.752 216.788 309.068 216.944 308.3 216.944C307.448 216.944 306.668 216.728 305.96 216.296C305.252 215.852 304.688 215.24 304.268 214.46C303.86 213.668 303.656 212.774 303.656 211.778ZM311.774 211.814C311.774 211.13 311.63 210.536 311.342 210.032C311.066 209.528 310.7 209.144 310.244 208.88C309.788 208.616 309.296 208.484 308.768 208.484C308.24 208.484 307.748 208.616 307.292 208.88C306.836 209.132 306.464 209.51 306.176 210.014C305.9 210.506 305.762 211.094 305.762 211.778C305.762 212.462 305.9 213.062 306.176 213.578C306.464 214.094 306.836 214.49 307.292 214.766C307.76 215.03 308.252 215.162 308.768 215.162C309.296 215.162 309.788 215.03 310.244 214.766C310.7 214.502 311.066 214.118 311.342 213.614C311.63 213.098 311.774 212.498 311.774 211.814ZM318.933 208.538V214.028C318.933 214.4 319.017 214.67 319.185 214.838C319.365 214.994 319.665 215.072 320.085 215.072H321.345V216.782H319.725C318.801 216.782 318.093 216.566 317.601 216.134C317.109 215.702 316.863 215 316.863 214.028V208.538H315.693V206.864H316.863V204.398H318.933V206.864H321.345V208.538H318.933ZM324.281 205.55C323.909 205.55 323.597 205.424 323.345 205.172C323.093 204.92 322.967 204.608 322.967 204.236C322.967 203.864 323.093 203.552 323.345 203.3C323.597 203.048 323.909 202.922 324.281 202.922C324.641 202.922 324.947 203.048 325.199 203.3C325.451 203.552 325.577 203.864 325.577 204.236C325.577 204.608 325.451 204.92 325.199 205.172C324.947 205.424 324.641 205.55 324.281 205.55ZM325.289 206.864V216.782H323.237V206.864H325.289ZM332.285 216.944C331.349 216.944 330.503 216.734 329.747 216.314C328.991 215.882 328.397 215.282 327.965 214.514C327.533 213.734 327.317 212.834 327.317 211.814C327.317 210.806 327.539 209.912 327.983 209.132C328.427 208.352 329.033 207.752 329.801 207.332C330.569 206.912 331.427 206.702 332.375 206.702C333.323 206.702 334.181 206.912 334.949 207.332C335.717 207.752 336.323 208.352 336.767 209.132C337.211 209.912 337.433 210.806 337.433 211.814C337.433 212.822 337.205 213.716 336.749 214.496C336.293 215.276 335.669 215.882 334.877 216.314C334.097 216.734 333.233 216.944 332.285 216.944ZM332.285 215.162C332.813 215.162 333.305 215.036 333.761 214.784C334.229 214.532 334.607 214.154 334.895 213.65C335.183 213.146 335.327 212.534 335.327 211.814C335.327 211.094 335.189 210.488 334.913 209.996C334.637 209.492 334.271 209.114 333.815 208.862C333.359 208.61 332.867 208.484 332.339 208.484C331.811 208.484 331.319 208.61 330.863 208.862C330.419 209.114 330.065 209.492 329.801 209.996C329.537 210.488 329.405 211.094 329.405 211.814C329.405 212.882 329.675 213.71 330.215 214.298C330.767 214.874 331.457 215.162 332.285 215.162ZM344.465 206.702C345.245 206.702 345.941 206.864 346.553 207.188C347.177 207.512 347.663 207.992 348.011 208.628C348.359 209.264 348.533 210.032 348.533 210.932V216.782H346.499V211.238C346.499 210.35 346.277 209.672 345.833 209.204C345.389 208.724 344.783 208.484 344.015 208.484C343.247 208.484 342.635 208.724 342.179 209.204C341.735 209.672 341.513 210.35 341.513 211.238V216.782H339.461V206.864H341.513V207.998C341.849 207.59 342.275 207.272 342.791 207.044C343.319 206.816 343.877 206.702 344.465 206.702ZM362.523 210.356C363.195 210.476 363.765 210.83 364.233 211.418C364.701 212.006 364.935 212.672 364.935 213.416C364.935 214.052 364.767 214.628 364.431 215.144C364.107 215.648 363.633 216.05 363.009 216.35C362.385 216.638 361.659 216.782 360.831 216.782H355.827V204.272H360.597C361.449 204.272 362.181 204.416 362.793 204.704C363.405 204.992 363.867 205.382 364.179 205.874C364.491 206.354 364.647 206.894 364.647 207.494C364.647 208.214 364.455 208.814 364.071 209.294C363.687 209.774 363.171 210.128 362.523 210.356ZM357.879 209.528H360.417C361.089 209.528 361.611 209.378 361.983 209.078C362.367 208.766 362.559 208.322 362.559 207.746C362.559 207.182 362.367 206.744 361.983 206.432C361.611 206.108 361.089 205.946 360.417 205.946H357.879V209.528ZM360.651 215.108C361.347 215.108 361.893 214.94 362.289 214.604C362.685 214.268 362.883 213.8 362.883 213.2C362.883 212.588 362.673 212.102 362.253 211.742C361.833 211.382 361.275 211.202 360.579 211.202H357.879V215.108H360.651ZM371.466 216.944C370.53 216.944 369.684 216.734 368.928 216.314C368.172 215.882 367.578 215.282 367.146 214.514C366.714 213.734 366.498 212.834 366.498 211.814C366.498 210.806 366.72 209.912 367.164 209.132C367.608 208.352 368.214 207.752 368.982 207.332C369.75 206.912 370.608 206.702 371.556 206.702C372.504 206.702 373.362 206.912 374.13 207.332C374.898 207.752 375.504 208.352 375.948 209.132C376.392 209.912 376.614 210.806 376.614 211.814C376.614 212.822 376.386 213.716 375.93 214.496C375.474 215.276 374.85 215.882 374.058 216.314C373.278 216.734 372.414 216.944 371.466 216.944ZM371.466 215.162C371.994 215.162 372.486 215.036 372.942 214.784C373.41 214.532 373.788 214.154 374.076 213.65C374.364 213.146 374.508 212.534 374.508 211.814C374.508 211.094 374.37 210.488 374.094 209.996C373.818 209.492 373.452 209.114 372.996 208.862C372.54 208.61 372.048 208.484 371.52 208.484C370.992 208.484 370.5 208.61 370.044 208.862C369.6 209.114 369.246 209.492 368.982 209.996C368.718 210.488 368.586 211.094 368.586 211.814C368.586 212.882 368.856 213.71 369.396 214.298C369.948 214.874 370.638 215.162 371.466 215.162ZM377.959 211.778C377.959 210.782 378.163 209.9 378.571 209.132C378.991 208.364 379.555 207.77 380.263 207.35C380.983 206.918 381.775 206.702 382.639 206.702C383.419 206.702 384.097 206.858 384.673 207.17C385.261 207.47 385.729 207.848 386.077 208.304V206.864H388.147V216.782H386.077V215.306C385.729 215.774 385.255 216.164 384.655 216.476C384.055 216.788 383.371 216.944 382.603 216.944C381.751 216.944 380.971 216.728 380.263 216.296C379.555 215.852 378.991 215.24 378.571 214.46C378.163 213.668 377.959 212.774 377.959 211.778ZM386.077 211.814C386.077 211.13 385.933 210.536 385.645 210.032C385.369 209.528 385.003 209.144 384.547 208.88C384.091 208.616 383.599 208.484 383.071 208.484C382.543 208.484 382.051 208.616 381.595 208.88C381.139 209.132 380.767 209.51 380.479 210.014C380.203 210.506 380.065 211.094 380.065 211.778C380.065 212.462 380.203 213.062 380.479 213.578C380.767 214.094 381.139 214.49 381.595 214.766C382.063 215.03 382.555 215.162 383.071 215.162C383.599 215.162 384.091 215.03 384.547 214.766C385.003 214.502 385.369 214.118 385.645 213.614C385.933 213.098 386.077 212.498 386.077 211.814ZM392.894 208.304C393.194 207.8 393.59 207.41 394.082 207.134C394.586 206.846 395.18 206.702 395.864 206.702V208.826H395.342C394.538 208.826 393.926 209.03 393.506 209.438C393.098 209.846 392.894 210.554 392.894 211.562V216.782H390.842V206.864H392.894V208.304ZM397.066 211.778C397.066 210.782 397.27 209.9 397.678 209.132C398.098 208.364 398.662 207.77 399.37 207.35C400.09 206.918 400.888 206.702 401.764 206.702C402.412 206.702 403.048 206.846 403.672 207.134C404.308 207.41 404.812 207.782 405.184 208.25V203.462H407.254V216.782H405.184V215.288C404.848 215.768 404.38 216.164 403.78 216.476C403.192 216.788 402.514 216.944 401.746 216.944C400.882 216.944 400.09 216.728 399.37 216.296C398.662 215.852 398.098 215.24 397.678 214.46C397.27 213.668 397.066 212.774 397.066 211.778ZM405.184 211.814C405.184 211.13 405.04 210.536 404.752 210.032C404.476 209.528 404.11 209.144 403.654 208.88C403.198 208.616 402.706 208.484 402.178 208.484C401.65 208.484 401.158 208.616 400.702 208.88C400.246 209.132 399.874 209.51 399.586 210.014C399.31 210.506 399.172 211.094 399.172 211.778C399.172 212.462 399.31 213.062 399.586 213.578C399.874 214.094 400.246 214.49 400.702 214.766C401.17 215.03 401.662 215.162 402.178 215.162C402.706 215.162 403.198 215.03 403.654 214.766C404.11 214.502 404.476 214.118 404.752 213.614C405.04 213.098 405.184 212.498 405.184 211.814Z" fill="black"/>
<g filter="url(#filter1_d_2507_189)">
<path d="M245.182 21.042H573.044C589.211 21.042 604.715 26.2951 616.147 35.6458C627.579 44.9964 634.001 57.6786 634.001 70.9024C634.001 84.1261 627.579 96.8083 616.147 106.159C604.715 115.51 589.211 120.763 573.044 120.763H245.182V21.042Z" fill="white"/>
</g>
<path d="M320.836 80.0465C320.854 94.5854 316.452 108.803 308.185 120.9C299.918 132.998 288.158 142.431 274.394 148.008C260.63 153.584 245.479 155.052 230.859 152.227C216.239 149.402 202.806 142.41 192.261 132.135C181.715 121.861 174.531 108.767 171.617 94.5085C168.702 80.2503 170.189 65.4692 175.888 52.0353C181.587 38.6013 191.243 27.1183 203.634 19.0391C216.025 10.9598 230.595 6.64737 245.499 6.64735V79.9325L320.836 80.0465Z" fill="url(#paint2_linear_2507_189)"/>
<path d="M305.552 89.7792C310.945 57.2133 288.386 26.5282 255.166 21.242C221.946 15.9558 190.644 38.0704 185.252 70.6362C179.86 103.202 202.418 133.887 235.638 139.173C268.858 144.46 300.16 122.345 305.552 89.7792Z" fill="white"/>
<path style="mix-blend-mode:multiply" d="M253.255 129.254C277.934 129.254 297.94 109.579 297.94 85.3079C297.94 61.0369 277.934 41.3614 253.255 41.3614C228.577 41.3614 208.57 61.0369 208.57 85.3079C208.57 109.579 228.577 129.254 253.255 129.254Z" fill="url(#paint3_radial_2507_189)"/>
<path d="M291.445 0.00589394C284.53 0.673409 278.041 3.63453 273.021 8.41354C268 13.1925 264.74 19.512 263.764 26.3567C263.764 26.4715 263.764 26.6092 263.764 26.724C263.397 30.029 261.741 33.0588 259.153 35.162C256.565 37.2653 253.251 38.274 249.923 37.9713C247.323 37.718 244.703 37.718 242.103 37.9713C233.786 38.5942 225.847 41.6757 219.302 46.8204C212.758 51.9651 207.909 58.9382 205.375 66.8449C202.842 74.7516 202.741 83.2312 205.085 91.1954C207.43 99.1596 212.112 106.245 218.532 111.543C224.952 116.84 232.816 120.108 241.115 120.927C249.415 121.745 257.771 120.078 265.111 116.138C272.451 112.198 278.441 106.165 282.311 98.8139C286.181 91.4627 287.755 83.1285 286.832 74.8808C286.528 71.5695 287.541 68.2717 289.655 65.6963C291.769 63.1209 294.814 61.4736 298.135 61.1086H298.504C306.517 60.0447 313.79 55.8928 318.757 49.5468C323.725 43.2007 325.989 35.1677 325.064 27.1767C324.139 19.1857 320.098 11.8756 313.81 6.81979C307.523 1.76395 299.492 -0.633437 291.445 0.143619V0.00589394Z" fill="url(#paint4_linear_2507_189)"/>
<path d="M234.272 87.6043L230.752 81.4883H228.838V87.6043H226.33V72.3143H231.61C232.783 72.3143 233.773 72.5196 234.58 72.9303C235.401 73.341 236.01 73.891 236.406 74.5803C236.816 75.2696 237.022 76.0396 237.022 76.8903C237.022 77.8876 236.728 78.797 236.142 79.6183C235.57 80.425 234.682 80.975 233.48 81.2683L237.264 87.6043H234.272ZM228.838 79.4863H231.61C232.548 79.4863 233.252 79.2516 233.722 78.7823C234.206 78.313 234.448 77.6823 234.448 76.8903C234.448 76.0983 234.213 75.4823 233.744 75.0423C233.274 74.5876 232.563 74.3603 231.61 74.3603H228.838V79.4863ZM249.448 84.4803H243.046L241.946 87.6043H239.328L244.806 72.2923H247.71L253.188 87.6043H250.548L249.448 84.4803ZM248.744 82.4343L246.258 75.3283L243.75 82.4343H248.744ZM263.512 87.6043L259.992 81.4883H258.078V87.6043H255.57V72.3143H260.85C262.023 72.3143 263.013 72.5196 263.82 72.9303C264.641 73.341 265.25 73.891 265.646 74.5803C266.057 75.2696 266.262 76.0396 266.262 76.8903C266.262 77.8876 265.969 78.797 265.382 79.6183C264.81 80.425 263.923 80.975 262.72 81.2683L266.504 87.6043H263.512ZM258.078 79.4863H260.85C261.789 79.4863 262.493 79.2516 262.962 78.7823C263.446 78.313 263.688 77.6823 263.688 76.8903C263.688 76.0983 263.453 75.4823 262.984 75.0423C262.515 74.5876 261.803 74.3603 260.85 74.3603H258.078V79.4863Z" fill="white"/>
<path d="M294.246 53.1789C306.483 53.1789 316.404 43.5892 316.404 31.7596C316.404 19.9301 306.483 10.3403 294.246 10.3403C282.008 10.3403 272.088 19.9301 272.088 31.7596C272.088 43.5892 282.008 53.1789 294.246 53.1789Z" fill="white"/>
<path d="M305.764 33.2371V29.1125H303.029C302.802 28.1662 302.423 27.2613 301.907 26.4316L303.777 24.5755L300.832 21.6883L298.938 23.5215C298.092 23.015 297.169 22.6437 296.203 22.4216V19.8094H291.996V22.4674C291.031 22.6896 290.108 23.0608 289.261 23.5673L287.368 21.7342L284.399 24.6213L286.293 26.4774C285.776 27.3071 285.397 28.212 285.171 29.1584H282.576V33.2829H285.241C285.467 34.2293 285.846 35.1342 286.363 35.9639L284.469 37.82L287.438 40.7988L289.331 38.9428C290.178 39.4492 291.101 39.8205 292.066 40.0426V42.6778H296.274V39.9281C297.239 39.7059 298.162 39.3347 299.008 38.8282L300.902 40.6842L303.847 37.7741L301.977 35.9181C302.469 35.0842 302.824 34.1794 303.029 33.2371H305.764ZM294.076 35.9868C293.106 35.9868 292.157 35.7046 291.349 35.1758C290.542 34.6471 289.913 33.8956 289.541 33.0163C289.17 32.137 289.073 31.1695 289.262 30.2361C289.451 29.3026 289.919 28.4452 290.605 27.7722C291.292 27.0993 292.167 26.641 293.119 26.4553C294.071 26.2696 295.058 26.3649 295.955 26.7291C296.852 27.0933 297.618 27.7101 298.158 28.5014C298.697 29.2927 298.985 30.2231 298.985 31.1748C298.985 32.4353 298.481 33.6456 297.581 34.5454C296.68 35.4453 295.455 35.9628 294.17 35.9868H294.076ZM294.076 32.9392C293.599 32.9392 293.141 32.7533 292.804 32.4224C292.466 32.0916 292.277 31.6428 292.277 31.1748C292.277 30.7069 292.466 30.2581 292.804 29.9272C293.141 29.5963 293.599 29.4104 294.076 29.4104C294.554 29.4104 295.011 29.5963 295.349 29.9272C295.687 30.2581 295.876 30.7069 295.876 31.1748C295.876 31.6428 295.687 32.0916 295.349 32.4224C295.011 32.7533 294.554 32.9392 294.076 32.9392Z" fill="url(#paint5_linear_2507_189)"/>
<path style="mix-blend-mode:multiply" d="M270.398 259.074C293.19 249.819 304.013 224.204 294.573 201.861C285.132 179.517 259.002 168.907 236.21 178.162C213.418 187.417 202.595 213.032 212.035 235.375C221.476 257.719 247.606 268.329 270.398 259.074Z" fill="url(#paint6_radial_2507_189)"/>
<path d="M63.083 223.088V212.141H65.7686V223.088C65.7686 224.126 65.5465 225.01 65.1025 225.741C64.6585 226.471 64.0534 227.03 63.2871 227.417C62.5208 227.803 61.6507 227.997 60.6768 227.997C59.6813 227.997 58.7969 227.829 58.0234 227.492C57.2572 227.155 56.6556 226.64 56.2188 225.945C55.7819 225.25 55.5635 224.37 55.5635 223.302H58.2705C58.2705 223.918 58.3672 224.416 58.5605 224.796C58.7611 225.168 59.0404 225.44 59.3984 225.612C59.7637 225.777 60.1898 225.859 60.6768 225.859C61.1423 225.859 61.554 225.755 61.9121 225.548C62.2773 225.333 62.5638 225.021 62.7715 224.613C62.9792 224.198 63.083 223.689 63.083 223.088ZM74.7275 214.225L70.0547 227.782H67.2295L73.1162 212.141H74.9209L74.7275 214.225ZM78.6377 227.782L73.9541 214.225L73.75 212.141H75.5654L81.4736 227.782H78.6377ZM78.4121 221.981V224.119H69.9043V221.981H78.4121ZM89.0898 220.714H85.1045L85.083 218.748H88.5635C89.1507 218.748 89.6484 218.662 90.0566 218.49C90.472 218.311 90.7871 218.057 91.002 217.727C91.2168 217.391 91.3242 216.986 91.3242 216.513C91.3242 215.991 91.224 215.565 91.0234 215.235C90.8229 214.906 90.515 214.666 90.0996 214.515C89.6914 214.365 89.1686 214.29 88.5312 214.29H85.9209V227.782H83.2246V212.141H88.5312C89.3906 212.141 90.1569 212.224 90.8301 212.388C91.5104 212.553 92.0869 212.811 92.5596 213.162C93.0394 213.506 93.401 213.942 93.6445 214.472C93.8952 215.002 94.0205 215.633 94.0205 216.363C94.0205 217.008 93.8665 217.598 93.5586 218.135C93.2507 218.665 92.7959 219.099 92.1943 219.435C91.5928 219.772 90.8444 219.972 89.9492 220.037L89.0898 220.714ZM88.9717 227.782H84.2559L85.4697 225.644H88.9717C89.5804 225.644 90.0889 225.544 90.4971 225.344C90.9053 225.136 91.2096 224.853 91.4102 224.495C91.6178 224.13 91.7217 223.704 91.7217 223.217C91.7217 222.708 91.6322 222.268 91.4531 221.895C91.2741 221.516 90.9912 221.226 90.6045 221.025C90.2178 220.817 89.7129 220.714 89.0898 220.714H86.0605L86.082 218.748H90.0244L90.6367 219.489C91.4961 219.518 92.2015 219.707 92.7529 220.058C93.3115 220.409 93.7269 220.864 93.999 221.423C94.2712 221.981 94.4072 222.583 94.4072 223.227C94.4072 224.223 94.1888 225.057 93.752 225.73C93.3223 226.403 92.7028 226.915 91.8936 227.266C91.0843 227.61 90.1104 227.782 88.9717 227.782Z" fill="white"/>
<g filter="url(#filter2_d_2507_189)">
<path d="M244.76 288.053H573.344C589.342 288.308 604.579 293.674 615.783 302.997C626.986 312.319 633.261 324.856 633.261 337.913C633.261 350.97 626.986 363.507 615.783 372.829C604.579 382.152 589.342 387.518 573.344 387.773H244.76V288.053Z" fill="white"/>
</g>
<path d="M320.836 347.14C320.836 361.748 316.417 376.028 308.139 388.175C299.861 400.321 288.095 409.787 274.329 415.378C260.563 420.968 245.415 422.431 230.801 419.581C216.188 416.731 202.764 409.696 192.228 399.367C181.692 389.038 174.517 375.877 171.61 361.55C168.703 347.222 170.195 332.372 175.897 318.875C181.599 305.379 191.255 293.844 203.644 285.728C216.033 277.612 230.599 273.281 245.499 273.281V347.003L320.836 347.14Z" fill="url(#paint7_linear_2507_189)"/>
<path d="M245.498 407.705C278.948 407.705 306.063 380.92 306.063 347.879C306.063 314.838 278.948 288.053 245.498 288.053C212.049 288.053 184.934 314.838 184.934 347.879C184.934 380.92 212.049 407.705 245.498 407.705Z" fill="white"/>
<path style="mix-blend-mode:multiply" d="M270.415 392.625C293.207 383.37 304.031 357.755 294.59 335.412C285.149 313.069 259.02 302.458 236.228 311.713C213.436 320.968 202.612 346.583 212.053 368.926C221.494 391.27 247.624 401.88 270.415 392.625Z" fill="url(#paint8_radial_2507_189)"/>
<path d="M291.81 267.378C284.854 268.046 278.327 271.026 273.278 275.838C268.229 280.65 264.951 287.014 263.973 293.907C263.973 294.023 263.973 294.138 263.973 294.277C263.599 297.602 261.933 300.649 259.331 302.765C256.73 304.881 253.4 305.899 250.055 305.6C241.39 304.661 232.646 306.424 225.03 310.646C217.413 314.868 211.3 321.34 207.533 329.171C203.766 337.001 202.532 345.803 204 354.362C205.468 362.921 209.567 370.816 215.73 376.955C221.893 383.095 229.817 387.178 238.409 388.641C247 390.104 255.836 388.874 263.696 385.121C271.556 381.369 278.053 375.278 282.291 367.691C286.529 360.103 288.299 351.392 287.356 342.76C287.056 339.427 288.078 336.11 290.202 333.519C292.326 330.927 295.385 329.267 298.722 328.894H299.093C307.151 327.823 314.464 323.643 319.459 317.254C324.455 310.865 326.732 302.778 325.802 294.733C324.871 286.688 320.807 279.328 314.485 274.238C308.162 269.148 300.086 266.734 291.995 267.516L291.81 267.378Z" fill="url(#paint9_linear_2507_189)"/>
<path d="M224.494 346.507C224.494 345.011 224.838 343.669 225.528 342.481C226.232 341.293 227.178 340.369 228.366 339.709C229.568 339.034 230.881 338.697 232.304 338.697C233.932 338.697 235.376 339.1 236.638 339.907C237.914 340.699 238.838 341.828 239.41 343.295H236.396C236 342.488 235.45 341.887 234.746 341.491C234.042 341.095 233.228 340.897 232.304 340.897C231.292 340.897 230.39 341.124 229.598 341.579C228.806 342.033 228.182 342.686 227.728 343.537C227.288 344.387 227.068 345.377 227.068 346.507C227.068 347.636 227.288 348.626 227.728 349.477C228.182 350.327 228.806 350.987 229.598 351.457C230.39 351.911 231.292 352.139 232.304 352.139C233.228 352.139 234.042 351.941 234.746 351.545C235.45 351.149 236 350.547 236.396 349.741H239.41C238.838 351.207 237.914 352.337 236.638 353.129C235.376 353.921 233.932 354.317 232.304 354.317C230.866 354.317 229.554 353.987 228.366 353.327C227.178 352.652 226.232 351.721 225.528 350.533C224.838 349.345 224.494 348.003 224.494 346.507ZM247.383 354.339C246.357 354.339 245.433 354.163 244.611 353.811C243.79 353.444 243.145 352.931 242.675 352.271C242.206 351.611 241.971 350.841 241.971 349.961H244.655C244.714 350.621 244.971 351.163 245.425 351.589C245.895 352.014 246.547 352.227 247.383 352.227C248.249 352.227 248.923 352.021 249.407 351.611C249.891 351.185 250.133 350.643 250.133 349.983C250.133 349.469 249.979 349.051 249.671 348.729C249.378 348.406 249.004 348.157 248.549 347.981C248.109 347.805 247.493 347.614 246.701 347.409C245.704 347.145 244.89 346.881 244.259 346.617C243.643 346.338 243.115 345.913 242.675 345.341C242.235 344.769 242.015 344.006 242.015 343.053C242.015 342.173 242.235 341.403 242.675 340.743C243.115 340.083 243.731 339.577 244.523 339.225C245.315 338.873 246.232 338.697 247.273 338.697C248.755 338.697 249.965 339.071 250.903 339.819C251.857 340.552 252.385 341.564 252.487 342.855H249.715C249.671 342.297 249.407 341.821 248.923 341.425C248.439 341.029 247.801 340.831 247.009 340.831C246.291 340.831 245.704 341.014 245.249 341.381C244.795 341.747 244.567 342.275 244.567 342.965C244.567 343.434 244.707 343.823 244.985 344.131C245.279 344.424 245.645 344.659 246.085 344.835C246.525 345.011 247.127 345.201 247.889 345.407C248.901 345.685 249.723 345.964 250.353 346.243C250.999 346.521 251.541 346.954 251.981 347.541C252.436 348.113 252.663 348.883 252.663 349.851C252.663 350.628 252.451 351.361 252.025 352.051C251.615 352.74 251.006 353.297 250.199 353.723C249.407 354.133 248.469 354.339 247.383 354.339ZM262.597 354.339C261.174 354.339 259.861 354.009 258.659 353.349C257.471 352.674 256.525 351.743 255.821 350.555C255.131 349.352 254.787 348.003 254.787 346.507C254.787 345.011 255.131 343.669 255.821 342.481C256.525 341.293 257.471 340.369 258.659 339.709C259.861 339.034 261.174 338.697 262.597 338.697C264.034 338.697 265.347 339.034 266.535 339.709C267.737 340.369 268.683 341.293 269.373 342.481C270.062 343.669 270.407 345.011 270.407 346.507C270.407 348.003 270.062 349.352 269.373 350.555C268.683 351.743 267.737 352.674 266.535 353.349C265.347 354.009 264.034 354.339 262.597 354.339ZM262.597 352.161C263.609 352.161 264.511 351.933 265.303 351.479C266.095 351.009 266.711 350.349 267.151 349.499C267.605 348.633 267.833 347.636 267.833 346.507C267.833 345.377 267.605 344.387 267.151 343.537C266.711 342.686 266.095 342.033 265.303 341.579C264.511 341.124 263.609 340.897 262.597 340.897C261.585 340.897 260.683 341.124 259.891 341.579C259.099 342.033 258.475 342.686 258.021 343.537C257.581 344.387 257.361 345.377 257.361 346.507C257.361 347.636 257.581 348.633 258.021 349.499C258.475 350.349 259.099 351.009 259.891 351.479C260.683 351.933 261.585 352.161 262.597 352.161Z" fill="white"/>
<path d="M369.666 336.718C369.666 335.494 369.948 334.396 370.512 333.424C371.088 332.452 371.862 331.696 372.834 331.156C373.818 330.604 374.892 330.328 376.056 330.328C377.388 330.328 378.57 330.658 379.602 331.318C380.646 331.966 381.402 332.89 381.87 334.09H379.404C379.08 333.43 378.63 332.938 378.054 332.614C377.478 332.29 376.812 332.128 376.056 332.128C375.228 332.128 374.49 332.314 373.842 332.686C373.194 333.058 372.684 333.592 372.312 334.288C371.952 334.984 371.772 335.794 371.772 336.718C371.772 337.642 371.952 338.452 372.312 339.148C372.684 339.844 373.194 340.384 373.842 340.768C374.49 341.14 375.228 341.326 376.056 341.326C376.812 341.326 377.478 341.164 378.054 340.84C378.63 340.516 379.08 340.024 379.404 339.364H381.87C381.402 340.564 380.646 341.488 379.602 342.136C378.57 342.784 377.388 343.108 376.056 343.108C374.88 343.108 373.806 342.838 372.834 342.298C371.862 341.746 371.088 340.984 370.512 340.012C369.948 339.04 369.666 337.942 369.666 336.718ZM386.324 329.68V343H384.272V329.68H386.324ZM393.32 343.162C392.384 343.162 391.538 342.952 390.782 342.532C390.026 342.1 389.432 341.5 389 340.732C388.568 339.952 388.352 339.052 388.352 338.032C388.352 337.024 388.574 336.13 389.018 335.35C389.462 334.57 390.068 333.97 390.836 333.55C391.604 333.13 392.462 332.92 393.41 332.92C394.358 332.92 395.216 333.13 395.984 333.55C396.752 333.97 397.358 334.57 397.802 335.35C398.246 336.13 398.468 337.024 398.468 338.032C398.468 339.04 398.24 339.934 397.784 340.714C397.328 341.494 396.704 342.1 395.912 342.532C395.132 342.952 394.268 343.162 393.32 343.162ZM393.32 341.38C393.848 341.38 394.34 341.254 394.796 341.002C395.264 340.75 395.642 340.372 395.93 339.868C396.218 339.364 396.362 338.752 396.362 338.032C396.362 337.312 396.224 336.706 395.948 336.214C395.672 335.71 395.306 335.332 394.85 335.08C394.394 334.828 393.902 334.702 393.374 334.702C392.846 334.702 392.354 334.828 391.898 335.08C391.454 335.332 391.1 335.71 390.836 336.214C390.572 336.706 390.44 337.312 390.44 338.032C390.44 339.1 390.71 339.928 391.25 340.516C391.802 341.092 392.492 341.38 393.32 341.38ZM409.478 333.082V343H407.426V341.83C407.102 342.238 406.676 342.562 406.148 342.802C405.632 343.03 405.08 343.144 404.492 343.144C403.712 343.144 403.01 342.982 402.386 342.658C401.774 342.334 401.288 341.854 400.928 341.218C400.58 340.582 400.406 339.814 400.406 338.914V333.082H402.44V338.608C402.44 339.496 402.662 340.18 403.106 340.66C403.55 341.128 404.156 341.362 404.924 341.362C405.692 341.362 406.298 341.128 406.742 340.66C407.198 340.18 407.426 339.496 407.426 338.608V333.082H409.478ZM411.502 337.996C411.502 337 411.706 336.118 412.114 335.35C412.534 334.582 413.098 333.988 413.806 333.568C414.526 333.136 415.324 332.92 416.2 332.92C416.848 332.92 417.484 333.064 418.108 333.352C418.744 333.628 419.248 334 419.62 334.468V329.68H421.69V343H419.62V341.506C419.284 341.986 418.816 342.382 418.216 342.694C417.628 343.006 416.95 343.162 416.182 343.162C415.318 343.162 414.526 342.946 413.806 342.514C413.098 342.07 412.534 341.458 412.114 340.678C411.706 339.886 411.502 338.992 411.502 337.996ZM419.62 338.032C419.62 337.348 419.476 336.754 419.188 336.25C418.912 335.746 418.546 335.362 418.09 335.098C417.634 334.834 417.142 334.702 416.614 334.702C416.086 334.702 415.594 334.834 415.138 335.098C414.682 335.35 414.31 335.728 414.022 336.232C413.746 336.724 413.608 337.312 413.608 337.996C413.608 338.68 413.746 339.28 414.022 339.796C414.31 340.312 414.682 340.708 415.138 340.984C415.606 341.248 416.098 341.38 416.614 341.38C417.142 341.38 417.634 341.248 418.09 340.984C418.546 340.72 418.912 340.336 419.188 339.832C419.476 339.316 419.62 338.716 419.62 338.032ZM433.183 343.126C432.343 343.126 431.587 342.982 430.915 342.694C430.243 342.394 429.715 341.974 429.331 341.434C428.947 340.894 428.755 340.264 428.755 339.544H430.951C430.999 340.084 431.209 340.528 431.581 340.876C431.965 341.224 432.499 341.398 433.183 341.398C433.891 341.398 434.443 341.23 434.839 340.894C435.235 340.546 435.433 340.102 435.433 339.562C435.433 339.142 435.307 338.8 435.055 338.536C434.815 338.272 434.509 338.068 434.137 337.924C433.777 337.78 433.273 337.624 432.625 337.456C431.809 337.24 431.143 337.024 430.627 336.808C430.123 336.58 429.691 336.232 429.331 335.764C428.971 335.296 428.791 334.672 428.791 333.892C428.791 333.172 428.971 332.542 429.331 332.002C429.691 331.462 430.195 331.048 430.843 330.76C431.491 330.472 432.241 330.328 433.093 330.328C434.305 330.328 435.295 330.634 436.063 331.246C436.843 331.846 437.275 332.674 437.359 333.73H435.091C435.055 333.274 434.839 332.884 434.443 332.56C434.047 332.236 433.525 332.074 432.877 332.074C432.289 332.074 431.809 332.224 431.437 332.524C431.065 332.824 430.879 333.256 430.879 333.82C430.879 334.204 430.993 334.522 431.221 334.774C431.461 335.014 431.761 335.206 432.121 335.35C432.481 335.494 432.973 335.65 433.597 335.818C434.425 336.046 435.097 336.274 435.613 336.502C436.141 336.73 436.585 337.084 436.945 337.564C437.317 338.032 437.503 338.662 437.503 339.454C437.503 340.09 437.329 340.69 436.981 341.254C436.645 341.818 436.147 342.274 435.487 342.622C434.839 342.958 434.071 343.126 433.183 343.126ZM449.014 337.798C449.014 338.17 448.99 338.506 448.942 338.806H441.364C441.424 339.598 441.718 340.234 442.246 340.714C442.774 341.194 443.422 341.434 444.19 341.434C445.294 341.434 446.074 340.972 446.53 340.048H448.744C448.444 340.96 447.898 341.71 447.106 342.298C446.326 342.874 445.354 343.162 444.19 343.162C443.242 343.162 442.39 342.952 441.634 342.532C440.89 342.1 440.302 341.5 439.87 340.732C439.45 339.952 439.24 339.052 439.24 338.032C439.24 337.012 439.444 336.118 439.852 335.35C440.272 334.57 440.854 333.97 441.598 333.55C442.354 333.13 443.218 332.92 444.19 332.92C445.126 332.92 445.96 333.124 446.692 333.532C447.424 333.94 447.994 334.516 448.402 335.26C448.81 335.992 449.014 336.838 449.014 337.798ZM446.872 337.15C446.86 336.394 446.59 335.788 446.062 335.332C445.534 334.876 444.88 334.648 444.1 334.648C443.392 334.648 442.786 334.876 442.282 335.332C441.778 335.776 441.478 336.382 441.382 337.15H446.872ZM453.086 334.522C453.386 334.018 453.782 333.628 454.274 333.352C454.778 333.064 455.372 332.92 456.056 332.92V335.044H455.534C454.73 335.044 454.118 335.248 453.698 335.656C453.29 336.064 453.086 336.772 453.086 337.78V343H451.034V333.082H453.086V334.522ZM461.776 341.164L464.584 333.082H466.762L462.982 343H460.534L456.772 333.082H458.968L461.776 341.164ZM469.357 331.768C468.985 331.768 468.673 331.642 468.421 331.39C468.169 331.138 468.043 330.826 468.043 330.454C468.043 330.082 468.169 329.77 468.421 329.518C468.673 329.266 468.985 329.14 469.357 329.14C469.717 329.14 470.023 329.266 470.275 329.518C470.527 329.77 470.653 330.082 470.653 330.454C470.653 330.826 470.527 331.138 470.275 331.39C470.023 331.642 469.717 331.768 469.357 331.768ZM470.365 333.082V343H468.313V333.082H470.365ZM472.375 338.032C472.375 337.012 472.579 336.118 472.987 335.35C473.407 334.57 473.983 333.97 474.715 333.55C475.447 333.13 476.287 332.92 477.235 332.92C478.435 332.92 479.425 333.208 480.205 333.784C480.997 334.348 481.531 335.158 481.807 336.214H479.593C479.413 335.722 479.125 335.338 478.729 335.062C478.333 334.786 477.835 334.648 477.235 334.648C476.395 334.648 475.723 334.948 475.219 335.548C474.727 336.136 474.481 336.964 474.481 338.032C474.481 339.1 474.727 339.934 475.219 340.534C475.723 341.134 476.395 341.434 477.235 341.434C478.423 341.434 479.209 340.912 479.593 339.868H481.807C481.519 340.876 480.979 341.68 480.187 342.28C479.395 342.868 478.411 343.162 477.235 343.162C476.287 343.162 475.447 342.952 474.715 342.532C473.983 342.1 473.407 341.5 472.987 340.732C472.579 339.952 472.375 339.052 472.375 338.032ZM492.942 337.798C492.942 338.17 492.918 338.506 492.87 338.806H485.292C485.352 339.598 485.646 340.234 486.174 340.714C486.702 341.194 487.35 341.434 488.118 341.434C489.222 341.434 490.002 340.972 490.458 340.048H492.672C492.372 340.96 491.826 341.71 491.034 342.298C490.254 342.874 489.282 343.162 488.118 343.162C487.17 343.162 486.318 342.952 485.562 342.532C484.818 342.1 484.23 341.5 483.798 340.732C483.378 339.952 483.168 339.052 483.168 338.032C483.168 337.012 483.372 336.118 483.78 335.35C484.2 334.57 484.782 333.97 485.526 333.55C486.282 333.13 487.146 332.92 488.118 332.92C489.054 332.92 489.888 333.124 490.62 333.532C491.352 333.94 491.922 334.516 492.33 335.26C492.738 335.992 492.942 336.838 492.942 337.798ZM490.8 337.15C490.788 336.394 490.518 335.788 489.99 335.332C489.462 334.876 488.808 334.648 488.028 334.648C487.32 334.648 486.714 334.876 486.21 335.332C485.706 335.776 485.406 336.382 485.31 337.15H490.8ZM505.343 343.126C504.179 343.126 503.105 342.856 502.121 342.316C501.149 341.764 500.375 341.002 499.799 340.03C499.235 339.046 498.953 337.942 498.953 336.718C498.953 335.494 499.235 334.396 499.799 333.424C500.375 332.452 501.149 331.696 502.121 331.156C503.105 330.604 504.179 330.328 505.343 330.328C506.519 330.328 507.593 330.604 508.565 331.156C509.549 331.696 510.323 332.452 510.887 333.424C511.451 334.396 511.733 335.494 511.733 336.718C511.733 337.942 511.451 339.046 510.887 340.03C510.323 341.002 509.549 341.764 508.565 342.316C507.593 342.856 506.519 343.126 505.343 343.126ZM505.343 341.344C506.171 341.344 506.909 341.158 507.557 340.786C508.205 340.402 508.709 339.862 509.069 339.166C509.441 338.458 509.627 337.642 509.627 336.718C509.627 335.794 509.441 334.984 509.069 334.288C508.709 333.592 508.205 333.058 507.557 332.686C506.909 332.314 506.171 332.128 505.343 332.128C504.515 332.128 503.777 332.314 503.129 332.686C502.481 333.058 501.971 333.592 501.599 334.288C501.239 334.984 501.059 335.794 501.059 336.718C501.059 337.642 501.239 338.458 501.599 339.166C501.971 339.862 502.481 340.402 503.129 340.786C503.777 341.158 504.515 341.344 505.343 341.344ZM517.91 334.756H516.074V343H514.004V334.756H512.834V333.082H514.004V332.38C514.004 331.24 514.304 330.412 514.904 329.896C515.516 329.368 516.47 329.104 517.766 329.104V330.814C517.142 330.814 516.704 330.934 516.452 331.174C516.2 331.402 516.074 331.804 516.074 332.38V333.082H517.91V334.756ZM523.887 334.756H522.051V343H519.981V334.756H518.811V333.082H519.981V332.38C519.981 331.24 520.281 330.412 520.881 329.896C521.493 329.368 522.447 329.104 523.743 329.104V330.814C523.119 330.814 522.681 330.934 522.429 331.174C522.177 331.402 522.051 331.804 522.051 332.38V333.082H523.887V334.756ZM534.795 337.798C534.795 338.17 534.771 338.506 534.723 338.806H527.145C527.205 339.598 527.499 340.234 528.027 340.714C528.555 341.194 529.203 341.434 529.971 341.434C531.075 341.434 531.855 340.972 532.311 340.048H534.525C534.225 340.96 533.679 341.71 532.887 342.298C532.107 342.874 531.135 343.162 529.971 343.162C529.023 343.162 528.171 342.952 527.415 342.532C526.671 342.1 526.083 341.5 525.651 340.732C525.231 339.952 525.021 339.052 525.021 338.032C525.021 337.012 525.225 336.118 525.633 335.35C526.053 334.57 526.635 333.97 527.379 333.55C528.135 333.13 528.999 332.92 529.971 332.92C530.907 332.92 531.741 333.124 532.473 333.532C533.205 333.94 533.775 334.516 534.183 335.26C534.591 335.992 534.795 336.838 534.795 337.798ZM532.653 337.15C532.641 336.394 532.371 335.788 531.843 335.332C531.315 334.876 530.661 334.648 529.881 334.648C529.173 334.648 528.567 334.876 528.063 335.332C527.559 335.776 527.259 336.382 527.163 337.15H532.653ZM538.867 334.522C539.167 334.018 539.563 333.628 540.055 333.352C540.559 333.064 541.153 332.92 541.837 332.92V335.044H541.315C540.511 335.044 539.899 335.248 539.479 335.656C539.071 336.064 538.867 336.772 538.867 337.78V343H536.815V333.082H538.867V334.522ZM544.767 331.768C544.395 331.768 544.083 331.642 543.831 331.39C543.579 331.138 543.453 330.826 543.453 330.454C543.453 330.082 543.579 329.77 543.831 329.518C544.083 329.266 544.395 329.14 544.767 329.14C545.127 329.14 545.433 329.266 545.685 329.518C545.937 329.77 546.063 330.082 546.063 330.454C546.063 330.826 545.937 331.138 545.685 331.39C545.433 331.642 545.127 331.768 544.767 331.768ZM545.775 333.082V343H543.723V333.082H545.775ZM553.473 332.92C554.253 332.92 554.949 333.082 555.561 333.406C556.185 333.73 556.671 334.21 557.019 334.846C557.367 335.482 557.541 336.25 557.541 337.15V343H555.507V337.456C555.507 336.568 555.285 335.89 554.841 335.422C554.397 334.942 553.791 334.702 553.023 334.702C552.255 334.702 551.643 334.942 551.187 335.422C550.743 335.89 550.521 336.568 550.521 337.456V343H548.469V333.082H550.521V334.216C550.857 333.808 551.283 333.49 551.799 333.262C552.327 333.034 552.885 332.92 553.473 332.92ZM564.155 332.92C564.923 332.92 565.601 333.076 566.189 333.388C566.789 333.688 567.257 334.066 567.593 334.522V333.082H569.663V343.162C569.663 344.074 569.471 344.884 569.087 345.592C568.703 346.312 568.145 346.876 567.413 347.284C566.693 347.692 565.829 347.896 564.821 347.896C563.477 347.896 562.361 347.578 561.473 346.942C560.585 346.318 560.081 345.466 559.961 344.386H561.995C562.151 344.902 562.481 345.316 562.985 345.628C563.501 345.952 564.113 346.114 564.821 346.114C565.649 346.114 566.315 345.862 566.819 345.358C567.335 344.854 567.593 344.122 567.593 343.162V341.506C567.245 341.974 566.771 342.37 566.171 342.694C565.583 343.006 564.911 343.162 564.155 343.162C563.291 343.162 562.499 342.946 561.779 342.514C561.071 342.07 560.507 341.458 560.087 340.678C559.679 339.886 559.475 338.992 559.475 337.996C559.475 337 559.679 336.118 560.087 335.35C560.507 334.582 561.071 333.988 561.779 333.568C562.499 333.136 563.291 332.92 564.155 332.92ZM567.593 338.032C567.593 337.348 567.449 336.754 567.161 336.25C566.885 335.746 566.519 335.362 566.063 335.098C565.607 334.834 565.115 334.702 564.587 334.702C564.059 334.702 563.567 334.834 563.111 335.098C562.655 335.35 562.283 335.728 561.995 336.232C561.719 336.724 561.581 337.312 561.581 337.996C561.581 338.68 561.719 339.28 561.995 339.796C562.283 340.312 562.655 340.708 563.111 340.984C563.579 341.248 564.071 341.38 564.587 341.38C565.115 341.38 565.607 341.248 566.063 340.984C566.519 340.72 566.885 340.336 567.161 339.832C567.449 339.316 567.593 338.716 567.593 338.032Z" fill="black"/>
<path d="M355.494 66.5732L352.614 61.5692H351.048V66.5732H348.996V54.0632H353.316C354.276 54.0632 355.086 54.2312 355.746 54.5672C356.418 54.9032 356.916 55.3532 357.24 55.9172C357.576 56.4812 357.744 57.1112 357.744 57.8072C357.744 58.6232 357.504 59.3672 357.024 60.0392C356.556 60.6992 355.83 61.1492 354.846 61.3892L357.942 66.5732H355.494ZM351.048 59.9312H353.316C354.084 59.9312 354.66 59.7392 355.044 59.3552C355.44 58.9712 355.638 58.4552 355.638 57.8072C355.638 57.1592 355.446 56.6552 355.062 56.2952C354.678 55.9232 354.096 55.7372 353.316 55.7372H351.048V59.9312ZM369.46 61.3712C369.46 61.7432 369.436 62.0792 369.388 62.3792H361.81C361.87 63.1712 362.164 63.8072 362.692 64.2872C363.22 64.7672 363.868 65.0072 364.636 65.0072C365.74 65.0072 366.52 64.5452 366.976 63.6212H369.19C368.89 64.5332 368.344 65.2832 367.552 65.8712C366.772 66.4472 365.8 66.7352 364.636 66.7352C363.688 66.7352 362.836 66.5252 362.08 66.1052C361.336 65.6732 360.748 65.0732 360.316 64.3052C359.896 63.5252 359.686 62.6252 359.686 61.6052C359.686 60.5852 359.89 59.6912 360.298 58.9232C360.718 58.1432 361.3 57.5432 362.044 57.1232C362.8 56.7032 363.664 56.4932 364.636 56.4932C365.572 56.4932 366.406 56.6972 367.138 57.1052C367.87 57.5132 368.44 58.0892 368.848 58.8332C369.256 59.5652 369.46 60.4112 369.46 61.3712ZM367.318 60.7232C367.306 59.9672 367.036 59.3612 366.508 58.9052C365.98 58.4492 365.326 58.2212 364.546 58.2212C363.838 58.2212 363.232 58.4492 362.728 58.9052C362.224 59.3492 361.924 59.9552 361.828 60.7232H367.318ZM370.795 61.5692C370.795 60.5732 370.999 59.6912 371.407 58.9232C371.827 58.1552 372.391 57.5612 373.099 57.1412C373.819 56.7092 374.611 56.4932 375.475 56.4932C376.255 56.4932 376.933 56.6492 377.509 56.9612C378.097 57.2612 378.565 57.6392 378.913 58.0952V56.6552H380.983V66.5732H378.913V65.0972C378.565 65.5652 378.091 65.9552 377.491 66.2672C376.891 66.5792 376.207 66.7352 375.439 66.7352C374.587 66.7352 373.807 66.5192 373.099 66.0872C372.391 65.6432 371.827 65.0312 371.407 64.2512C370.999 63.4592 370.795 62.5652 370.795 61.5692ZM378.913 61.6052C378.913 60.9212 378.769 60.3272 378.481 59.8232C378.205 59.3192 377.839 58.9352 377.383 58.6712C376.927 58.4072 376.435 58.2752 375.907 58.2752C375.379 58.2752 374.887 58.4072 374.431 58.6712C373.975 58.9232 373.603 59.3012 373.315 59.8052C373.039 60.2972 372.901 60.8852 372.901 61.5692C372.901 62.2532 373.039 62.8532 373.315 63.3692C373.603 63.8852 373.975 64.2812 374.431 64.5572C374.899 64.8212 375.391 64.9532 375.907 64.9532C376.435 64.9532 376.927 64.8212 377.383 64.5572C377.839 64.2932 378.205 63.9092 378.481 63.4052C378.769 62.8892 378.913 62.2892 378.913 61.6052ZM382.994 61.5692C382.994 60.5732 383.198 59.6912 383.606 58.9232C384.026 58.1552 384.59 57.5612 385.298 57.1412C386.018 56.7092 386.816 56.4932 387.692 56.4932C388.34 56.4932 388.976 56.6372 389.6 56.9252C390.236 57.2012 390.74 57.5732 391.112 58.0412V53.2532H393.182V66.5732H391.112V65.0792C390.776 65.5592 390.308 65.9552 389.708 66.2672C389.12 66.5792 388.442 66.7352 387.674 66.7352C386.81 66.7352 386.018 66.5192 385.298 66.0872C384.59 65.6432 384.026 65.0312 383.606 64.2512C383.198 63.4592 382.994 62.5652 382.994 61.5692ZM391.112 61.6052C391.112 60.9212 390.968 60.3272 390.68 59.8232C390.404 59.3192 390.038 58.9352 389.582 58.6712C389.126 58.4072 388.634 58.2752 388.106 58.2752C387.578 58.2752 387.086 58.4072 386.63 58.6712C386.174 58.9232 385.802 59.3012 385.514 59.8052C385.238 60.2972 385.1 60.8852 385.1 61.5692C385.1 62.2532 385.238 62.8532 385.514 63.3692C385.802 63.8852 386.174 64.2812 386.63 64.5572C387.098 64.8212 387.59 64.9532 388.106 64.9532C388.634 64.9532 389.126 64.8212 389.582 64.5572C390.038 64.2932 390.404 63.9092 390.68 63.4052C390.968 62.8892 391.112 62.2892 391.112 61.6052ZM396.921 55.3412C396.549 55.3412 396.237 55.2152 395.985 54.9632C395.733 54.7112 395.607 54.3992 395.607 54.0272C395.607 53.6552 395.733 53.3432 395.985 53.0912C396.237 52.8392 396.549 52.7132 396.921 52.7132C397.281 52.7132 397.587 52.8392 397.839 53.0912C398.091 53.3432 398.217 53.6552 398.217 54.0272C398.217 54.3992 398.091 54.7112 397.839 54.9632C397.587 55.2152 397.281 55.3412 396.921 55.3412ZM397.929 56.6552V66.5732H395.877V56.6552H397.929ZM405.627 56.4932C406.407 56.4932 407.103 56.6552 407.715 56.9792C408.339 57.3032 408.825 57.7832 409.173 58.4192C409.521 59.0552 409.695 59.8232 409.695 60.7232V66.5732H407.661V61.0292C407.661 60.1412 407.439 59.4632 406.995 58.9952C406.551 58.5152 405.945 58.2752 405.177 58.2752C404.409 58.2752 403.797 58.5152 403.341 58.9952C402.897 59.4632 402.675 60.1412 402.675 61.0292V66.5732H400.623V56.6552H402.675V57.7892C403.011 57.3812 403.437 57.0632 403.953 56.8352C404.481 56.6072 405.039 56.4932 405.627 56.4932ZM421.403 61.3712C421.403 61.7432 421.379 62.0792 421.331 62.3792H413.753C413.813 63.1712 414.107 63.8072 414.635 64.2872C415.163 64.7672 415.811 65.0072 416.579 65.0072C417.683 65.0072 418.463 64.5452 418.919 63.6212H421.133C420.833 64.5332 420.287 65.2832 419.495 65.8712C418.715 66.4472 417.743 66.7352 416.579 66.7352C415.631 66.7352 414.779 66.5252 414.023 66.1052C413.279 65.6732 412.691 65.0732 412.259 64.3052C411.839 63.5252 411.629 62.6252 411.629 61.6052C411.629 60.5852 411.833 59.6912 412.241 58.9232C412.661 58.1432 413.243 57.5432 413.987 57.1232C414.743 56.7032 415.607 56.4932 416.579 56.4932C417.515 56.4932 418.349 56.6972 419.081 57.1052C419.813 57.5132 420.383 58.0892 420.791 58.8332C421.199 59.5652 421.403 60.4112 421.403 61.3712ZM419.261 60.7232C419.249 59.9672 418.979 59.3612 418.451 58.9052C417.923 58.4492 417.269 58.2212 416.489 58.2212C415.781 58.2212 415.175 58.4492 414.671 58.9052C414.167 59.3492 413.867 59.9552 413.771 60.7232H419.261ZM427.022 66.7352C426.242 66.7352 425.54 66.5972 424.916 66.3212C424.304 66.0332 423.818 65.6492 423.458 65.1692C423.098 64.6772 422.906 64.1312 422.882 63.5312H425.006C425.042 63.9512 425.24 64.3052 425.6 64.5932C425.972 64.8692 426.434 65.0072 426.986 65.0072C427.562 65.0072 428.006 64.8992 428.318 64.6832C428.642 64.4552 428.804 64.1672 428.804 63.8192C428.804 63.4472 428.624 63.1712 428.264 62.9912C427.916 62.8112 427.358 62.6132 426.59 62.3972C425.846 62.1932 425.24 61.9952 424.772 61.8032C424.304 61.6112 423.896 61.3172 423.548 60.9212C423.212 60.5252 423.044 60.0032 423.044 59.3552C423.044 58.8272 423.2 58.3472 423.512 57.9152C423.824 57.4712 424.268 57.1232 424.844 56.8712C425.432 56.6192 426.104 56.4932 426.86 56.4932C427.988 56.4932 428.894 56.7812 429.578 57.3572C430.274 57.9212 430.646 58.6952 430.694 59.6792H428.642C428.606 59.2352 428.426 58.8812 428.102 58.6172C427.778 58.3532 427.34 58.2212 426.788 58.2212C426.248 58.2212 425.834 58.3232 425.546 58.5272C425.258 58.7312 425.114 59.0012 425.114 59.3372C425.114 59.6012 425.21 59.8232 425.402 60.0032C425.594 60.1832 425.828 60.3272 426.104 60.4352C426.38 60.5312 426.788 60.6572 427.328 60.8132C428.048 61.0052 428.636 61.2032 429.092 61.4072C429.56 61.5992 429.962 61.8872 430.298 62.2712C430.634 62.6552 430.808 63.1652 430.82 63.8012C430.82 64.3652 430.664 64.8692 430.352 65.3132C430.04 65.7572 429.596 66.1052 429.02 66.3572C428.456 66.6092 427.79 66.7352 427.022 66.7352ZM436.638 66.7352C435.858 66.7352 435.156 66.5972 434.532 66.3212C433.92 66.0332 433.434 65.6492 433.074 65.1692C432.714 64.6772 432.522 64.1312 432.498 63.5312H434.622C434.658 63.9512 434.856 64.3052 435.216 64.5932C435.588 64.8692 436.05 65.0072 436.602 65.0072C437.178 65.0072 437.622 64.8992 437.934 64.6832C438.258 64.4552 438.42 64.1672 438.42 63.8192C438.42 63.4472 438.24 63.1712 437.88 62.9912C437.532 62.8112 436.974 62.6132 436.206 62.3972C435.462 62.1932 434.856 61.9952 434.388 61.8032C433.92 61.6112 433.512 61.3172 433.164 60.9212C432.828 60.5252 432.66 60.0032 432.66 59.3552C432.66 58.8272 432.816 58.3472 433.128 57.9152C433.44 57.4712 433.884 57.1232 434.46 56.8712C435.048 56.6192 435.72 56.4932 436.476 56.4932C437.604 56.4932 438.51 56.7812 439.194 57.3572C439.89 57.9212 440.262 58.6952 440.31 59.6792H438.258C438.222 59.2352 438.042 58.8812 437.718 58.6172C437.394 58.3532 436.956 58.2212 436.404 58.2212C435.864 58.2212 435.45 58.3232 435.162 58.5272C434.874 58.7312 434.73 59.0012 434.73 59.3372C434.73 59.6012 434.826 59.8232 435.018 60.0032C435.21 60.1832 435.444 60.3272 435.72 60.4352C435.996 60.5312 436.404 60.6572 436.944 60.8132C437.664 61.0052 438.252 61.2032 438.708 61.4072C439.176 61.5992 439.578 61.8872 439.914 62.2712C440.25 62.6552 440.424 63.1652 440.436 63.8012C440.436 64.3652 440.28 64.8692 439.968 65.3132C439.656 65.7572 439.212 66.1052 438.636 66.3572C438.072 66.6092 437.406 66.7352 436.638 66.7352ZM454.871 64.0172H449.633L448.733 66.5732H446.591L451.073 54.0452H453.449L457.931 66.5732H455.771L454.871 64.0172ZM454.295 62.3432L452.261 56.5292L450.209 62.3432H454.295ZM463.479 66.7352C462.699 66.7352 461.997 66.5972 461.373 66.3212C460.761 66.0332 460.275 65.6492 459.915 65.1692C459.555 64.6772 459.363 64.1312 459.339 63.5312H461.463C461.499 63.9512 461.697 64.3052 462.057 64.5932C462.429 64.8692 462.891 65.0072 463.443 65.0072C464.019 65.0072 464.463 64.8992 464.775 64.6832C465.099 64.4552 465.261 64.1672 465.261 63.8192C465.261 63.4472 465.081 63.1712 464.721 62.9912C464.373 62.8112 463.815 62.6132 463.047 62.3972C462.303 62.1932 461.697 61.9952 461.229 61.8032C460.761 61.6112 460.353 61.3172 460.005 60.9212C459.669 60.5252 459.501 60.0032 459.501 59.3552C459.501 58.8272 459.657 58.3472 459.969 57.9152C460.281 57.4712 460.725 57.1232 461.301 56.8712C461.889 56.6192 462.561 56.4932 463.317 56.4932C464.445 56.4932 465.351 56.7812 466.035 57.3572C466.731 57.9212 467.103 58.6952 467.151 59.6792H465.099C465.063 59.2352 464.883 58.8812 464.559 58.6172C464.235 58.3532 463.797 58.2212 463.245 58.2212C462.705 58.2212 462.291 58.3232 462.003 58.5272C461.715 58.7312 461.571 59.0012 461.571 59.3372C461.571 59.6012 461.667 59.8232 461.859 60.0032C462.051 60.1832 462.285 60.3272 462.561 60.4352C462.837 60.5312 463.245 60.6572 463.785 60.8132C464.505 61.0052 465.093 61.2032 465.549 61.4072C466.017 61.5992 466.419 61.8872 466.755 62.2712C467.091 62.6552 467.265 63.1652 467.277 63.8012C467.277 64.3652 467.121 64.8692 466.809 65.3132C466.497 65.7572 466.053 66.1052 465.477 66.3572C464.913 66.6092 464.247 66.7352 463.479 66.7352ZM473.095 66.7352C472.315 66.7352 471.613 66.5972 470.989 66.3212C470.377 66.0332 469.891 65.6492 469.531 65.1692C469.171 64.6772 468.979 64.1312 468.955 63.5312H471.079C471.115 63.9512 471.313 64.3052 471.673 64.5932C472.045 64.8692 472.507 65.0072 473.059 65.0072C473.635 65.0072 474.079 64.8992 474.391 64.6832C474.715 64.4552 474.877 64.1672 474.877 63.8192C474.877 63.4472 474.697 63.1712 474.337 62.9912C473.989 62.8112 473.431 62.6132 472.663 62.3972C471.919 62.1932 471.313 61.9952 470.845 61.8032C470.377 61.6112 469.969 61.3172 469.621 60.9212C469.285 60.5252 469.117 60.0032 469.117 59.3552C469.117 58.8272 469.273 58.3472 469.585 57.9152C469.897 57.4712 470.341 57.1232 470.917 56.8712C471.505 56.6192 472.177 56.4932 472.933 56.4932C474.061 56.4932 474.967 56.7812 475.651 57.3572C476.347 57.9212 476.719 58.6952 476.767 59.6792H474.715C474.679 59.2352 474.499 58.8812 474.175 58.6172C473.851 58.3532 473.413 58.2212 472.861 58.2212C472.321 58.2212 471.907 58.3232 471.619 58.5272C471.331 58.7312 471.187 59.0012 471.187 59.3372C471.187 59.6012 471.283 59.8232 471.475 60.0032C471.667 60.1832 471.901 60.3272 472.177 60.4352C472.453 60.5312 472.861 60.6572 473.401 60.8132C474.121 61.0052 474.709 61.2032 475.165 61.4072C475.633 61.5992 476.035 61.8872 476.371 62.2712C476.707 62.6552 476.881 63.1652 476.893 63.8012C476.893 64.3652 476.737 64.8692 476.425 65.3132C476.113 65.7572 475.669 66.1052 475.093 66.3572C474.529 66.6092 473.863 66.7352 473.095 66.7352ZM488.2 61.3712C488.2 61.7432 488.176 62.0792 488.128 62.3792H480.55C480.61 63.1712 480.904 63.8072 481.432 64.2872C481.96 64.7672 482.608 65.0072 483.376 65.0072C484.48 65.0072 485.26 64.5452 485.716 63.6212H487.93C487.63 64.5332 487.084 65.2832 486.292 65.8712C485.512 66.4472 484.54 66.7352 483.376 66.7352C482.428 66.7352 481.576 66.5252 480.82 66.1052C480.076 65.6732 479.488 65.0732 479.056 64.3052C478.636 63.5252 478.426 62.6252 478.426 61.6052C478.426 60.5852 478.63 59.6912 479.038 58.9232C479.458 58.1432 480.04 57.5432 480.784 57.1232C481.54 56.7032 482.404 56.4932 483.376 56.4932C484.312 56.4932 485.146 56.6972 485.878 57.1052C486.61 57.5132 487.18 58.0892 487.588 58.8332C487.996 59.5652 488.2 60.4112 488.2 61.3712ZM486.058 60.7232C486.046 59.9672 485.776 59.3612 485.248 58.9052C484.72 58.4492 484.066 58.2212 483.286 58.2212C482.578 58.2212 481.972 58.4492 481.468 58.9052C480.964 59.3492 480.664 59.9552 480.568 60.7232H486.058ZM493.819 66.7352C493.039 66.7352 492.337 66.5972 491.713 66.3212C491.101 66.0332 490.615 65.6492 490.255 65.1692C489.895 64.6772 489.703 64.1312 489.679 63.5312H491.803C491.839 63.9512 492.037 64.3052 492.397 64.5932C492.769 64.8692 493.231 65.0072 493.783 65.0072C494.359 65.0072 494.803 64.8992 495.115 64.6832C495.439 64.4552 495.601 64.1672 495.601 63.8192C495.601 63.4472 495.421 63.1712 495.061 62.9912C494.713 62.8112 494.155 62.6132 493.387 62.3972C492.643 62.1932 492.037 61.9952 491.569 61.8032C491.101 61.6112 490.693 61.3172 490.345 60.9212C490.009 60.5252 489.841 60.0032 489.841 59.3552C489.841 58.8272 489.997 58.3472 490.309 57.9152C490.621 57.4712 491.065 57.1232 491.641 56.8712C492.229 56.6192 492.901 56.4932 493.657 56.4932C494.785 56.4932 495.691 56.7812 496.375 57.3572C497.071 57.9212 497.443 58.6952 497.491 59.6792H495.439C495.403 59.2352 495.223 58.8812 494.899 58.6172C494.575 58.3532 494.137 58.2212 493.585 58.2212C493.045 58.2212 492.631 58.3232 492.343 58.5272C492.055 58.7312 491.911 59.0012 491.911 59.3372C491.911 59.6012 492.007 59.8232 492.199 60.0032C492.391 60.1832 492.625 60.3272 492.901 60.4352C493.177 60.5312 493.585 60.6572 494.125 60.8132C494.845 61.0052 495.433 61.2032 495.889 61.4072C496.357 61.5992 496.759 61.8872 497.095 62.2712C497.431 62.6552 497.605 63.1652 497.617 63.8012C497.617 64.3652 497.461 64.8692 497.149 65.3132C496.837 65.7572 496.393 66.1052 495.817 66.3572C495.253 66.6092 494.587 66.7352 493.819 66.7352ZM503.434 66.7352C502.654 66.7352 501.952 66.5972 501.328 66.3212C500.716 66.0332 500.23 65.6492 499.87 65.1692C499.51 64.6772 499.318 64.1312 499.294 63.5312H501.418C501.454 63.9512 501.652 64.3052 502.012 64.5932C502.384 64.8692 502.846 65.0072 503.398 65.0072C503.974 65.0072 504.418 64.8992 504.73 64.6832C505.054 64.4552 505.216 64.1672 505.216 63.8192C505.216 63.4472 505.036 63.1712 504.676 62.9912C504.328 62.8112 503.77 62.6132 503.002 62.3972C502.258 62.1932 501.652 61.9952 501.184 61.8032C500.716 61.6112 500.308 61.3172 499.96 60.9212C499.624 60.5252 499.456 60.0032 499.456 59.3552C499.456 58.8272 499.612 58.3472 499.924 57.9152C500.236 57.4712 500.68 57.1232 501.256 56.8712C501.844 56.6192 502.516 56.4932 503.272 56.4932C504.4 56.4932 505.306 56.7812 505.99 57.3572C506.686 57.9212 507.058 58.6952 507.106 59.6792H505.054C505.018 59.2352 504.838 58.8812 504.514 58.6172C504.19 58.3532 503.752 58.2212 503.2 58.2212C502.66 58.2212 502.246 58.3232 501.958 58.5272C501.67 58.7312 501.526 59.0012 501.526 59.3372C501.526 59.6012 501.622 59.8232 501.814 60.0032C502.006 60.1832 502.24 60.3272 502.516 60.4352C502.792 60.5312 503.2 60.6572 503.74 60.8132C504.46 61.0052 505.048 61.2032 505.504 61.4072C505.972 61.5992 506.374 61.8872 506.71 62.2712C507.046 62.6552 507.22 63.1652 507.232 63.8012C507.232 64.3652 507.076 64.8692 506.764 65.3132C506.452 65.7572 506.008 66.1052 505.432 66.3572C504.868 66.6092 504.202 66.7352 503.434 66.7352ZM521.456 56.4932C522.236 56.4932 522.932 56.6552 523.544 56.9792C524.168 57.3032 524.654 57.7832 525.002 58.4192C525.362 59.0552 525.542 59.8232 525.542 60.7232V66.5732H523.508V61.0292C523.508 60.1412 523.286 59.4632 522.842 58.9952C522.398 58.5152 521.792 58.2752 521.024 58.2752C520.256 58.2752 519.644 58.5152 519.188 58.9952C518.744 59.4632 518.522 60.1412 518.522 61.0292V66.5732H516.488V61.0292C516.488 60.1412 516.266 59.4632 515.822 58.9952C515.378 58.5152 514.772 58.2752 514.004 58.2752C513.236 58.2752 512.624 58.5152 512.168 58.9952C511.724 59.4632 511.502 60.1412 511.502 61.0292V66.5732H509.45V56.6552H511.502V57.7892C511.838 57.3812 512.264 57.0632 512.78 56.8352C513.296 56.6072 513.848 56.4932 514.436 56.4932C515.228 56.4932 515.936 56.6612 516.56 56.9972C517.184 57.3332 517.664 57.8192 518 58.4552C518.3 57.8552 518.768 57.3812 519.404 57.0332C520.04 56.6732 520.724 56.4932 521.456 56.4932ZM537.243 61.3712C537.243 61.7432 537.219 62.0792 537.171 62.3792H529.593C529.653 63.1712 529.947 63.8072 530.475 64.2872C531.003 64.7672 531.651 65.0072 532.419 65.0072C533.523 65.0072 534.303 64.5452 534.759 63.6212H536.973C536.673 64.5332 536.127 65.2832 535.335 65.8712C534.555 66.4472 533.583 66.7352 532.419 66.7352C531.471 66.7352 530.619 66.5252 529.863 66.1052C529.119 65.6732 528.531 65.0732 528.099 64.3052C527.679 63.5252 527.469 62.6252 527.469 61.6052C527.469 60.5852 527.673 59.6912 528.081 58.9232C528.501 58.1432 529.083 57.5432 529.827 57.1232C530.583 56.7032 531.447 56.4932 532.419 56.4932C533.355 56.4932 534.189 56.6972 534.921 57.1052C535.653 57.5132 536.223 58.0892 536.631 58.8332C537.039 59.5652 537.243 60.4112 537.243 61.3712ZM535.101 60.7232C535.089 59.9672 534.819 59.3612 534.291 58.9052C533.763 58.4492 533.109 58.2212 532.329 58.2212C531.621 58.2212 531.015 58.4492 530.511 58.9052C530.007 59.3492 529.707 59.9552 529.611 60.7232H535.101ZM544.266 56.4932C545.046 56.4932 545.742 56.6552 546.354 56.9792C546.978 57.3032 547.464 57.7832 547.812 58.4192C548.16 59.0552 548.334 59.8232 548.334 60.7232V66.5732H546.3V61.0292C546.3 60.1412 546.078 59.4632 545.634 58.9952C545.19 58.5152 544.584 58.2752 543.816 58.2752C543.048 58.2752 542.436 58.5152 541.98 58.9952C541.536 59.4632 541.314 60.1412 541.314 61.0292V66.5732H539.262V56.6552H541.314V57.7892C541.65 57.3812 542.076 57.0632 542.592 56.8352C543.12 56.6072 543.678 56.4932 544.266 56.4932ZM553.346 58.3292V63.8192C553.346 64.1912 553.43 64.4612 553.598 64.6292C553.778 64.7852 554.078 64.8632 554.498 64.8632H555.758V66.5732H554.138C553.214 66.5732 552.506 66.3572 552.014 65.9252C551.522 65.4932 551.276 64.7912 551.276 63.8192V58.3292H550.106V56.6552H551.276V54.1892H553.346V56.6552H555.758V58.3292H553.346ZM355.494 89.5732L352.614 84.5692H351.048V89.5732H348.996V77.0632H353.316C354.276 77.0632 355.086 77.2312 355.746 77.5672C356.418 77.9032 356.916 78.3532 357.24 78.9172C357.576 79.4812 357.744 80.1112 357.744 80.8072C357.744 81.6232 357.504 82.3672 357.024 83.0392C356.556 83.6992 355.83 84.1492 354.846 84.3892L357.942 89.5732H355.494ZM351.048 82.9312H353.316C354.084 82.9312 354.66 82.7392 355.044 82.3552C355.44 81.9712 355.638 81.4552 355.638 80.8072C355.638 80.1592 355.446 79.6552 355.062 79.2952C354.678 78.9232 354.096 78.7372 353.316 78.7372H351.048V82.9312ZM369.46 84.3712C369.46 84.7432 369.436 85.0792 369.388 85.3792H361.81C361.87 86.1712 362.164 86.8072 362.692 87.2872C363.22 87.7672 363.868 88.0072 364.636 88.0072C365.74 88.0072 366.52 87.5452 366.976 86.6212H369.19C368.89 87.5332 368.344 88.2832 367.552 88.8712C366.772 89.4472 365.8 89.7352 364.636 89.7352C363.688 89.7352 362.836 89.5252 362.08 89.1052C361.336 88.6732 360.748 88.0732 360.316 87.3052C359.896 86.5252 359.686 85.6252 359.686 84.6052C359.686 83.5852 359.89 82.6912 360.298 81.9232C360.718 81.1432 361.3 80.5432 362.044 80.1232C362.8 79.7032 363.664 79.4932 364.636 79.4932C365.572 79.4932 366.406 79.6972 367.138 80.1052C367.87 80.5132 368.44 81.0892 368.848 81.8332C369.256 82.5652 369.46 83.4112 369.46 84.3712ZM367.318 83.7232C367.306 82.9672 367.036 82.3612 366.508 81.9052C365.98 81.4492 365.326 81.2212 364.546 81.2212C363.838 81.2212 363.232 81.4492 362.728 81.9052C362.224 82.3492 361.924 82.9552 361.828 83.7232H367.318ZM373.531 81.1132C373.879 80.6572 374.353 80.2732 374.953 79.9612C375.553 79.6492 376.231 79.4932 376.987 79.4932C377.851 79.4932 378.637 79.7092 379.345 80.1412C380.065 80.5612 380.629 81.1552 381.037 81.9232C381.445 82.6912 381.649 83.5732 381.649 84.5692C381.649 85.5652 381.445 86.4592 381.037 87.2512C380.629 88.0312 380.065 88.6432 379.345 89.0872C378.637 89.5192 377.851 89.7352 376.987 89.7352C376.231 89.7352 375.559 89.5852 374.971 89.2852C374.383 88.9732 373.903 88.5892 373.531 88.1332V94.2892H371.479V79.6552H373.531V81.1132ZM379.561 84.5692C379.561 83.8852 379.417 83.2972 379.129 82.8052C378.853 82.3012 378.481 81.9232 378.013 81.6712C377.557 81.4072 377.065 81.2752 376.537 81.2752C376.021 81.2752 375.529 81.4072 375.061 81.6712C374.605 81.9352 374.233 82.3192 373.945 82.8232C373.669 83.3272 373.531 83.9212 373.531 84.6052C373.531 85.2892 373.669 85.8892 373.945 86.4052C374.233 86.9092 374.605 87.2932 375.061 87.5572C375.529 87.8212 376.021 87.9532 376.537 87.9532C377.065 87.9532 377.557 87.8212 378.013 87.5572C378.481 87.2812 378.853 86.8852 379.129 86.3692C379.417 85.8532 379.561 85.2532 379.561 84.5692ZM387.98 89.7352C387.044 89.7352 386.198 89.5252 385.442 89.1052C384.686 88.6732 384.092 88.0732 383.66 87.3052C383.228 86.5252 383.012 85.6252 383.012 84.6052C383.012 83.5972 383.234 82.7032 383.678 81.9232C384.122 81.1432 384.728 80.5432 385.496 80.1232C386.264 79.7032 387.122 79.4932 388.07 79.4932C389.018 79.4932 389.876 79.7032 390.644 80.1232C391.412 80.5432 392.018 81.1432 392.462 81.9232C392.906 82.7032 393.128 83.5972 393.128 84.6052C393.128 85.6132 392.9 86.5072 392.444 87.2872C391.988 88.0672 391.364 88.6732 390.572 89.1052C389.792 89.5252 388.928 89.7352 387.98 89.7352ZM387.98 87.9532C388.508 87.9532 389 87.8272 389.456 87.5752C389.924 87.3232 390.302 86.9452 390.59 86.4412C390.878 85.9372 391.022 85.3252 391.022 84.6052C391.022 83.8852 390.884 83.2792 390.608 82.7872C390.332 82.2832 389.966 81.9052 389.51 81.6532C389.054 81.4012 388.562 81.2752 388.034 81.2752C387.506 81.2752 387.014 81.4012 386.558 81.6532C386.114 81.9052 385.76 82.2832 385.496 82.7872C385.232 83.2792 385.1 83.8852 385.1 84.6052C385.1 85.6732 385.37 86.5012 385.91 87.0892C386.462 87.6652 387.152 87.9532 387.98 87.9532ZM397.209 81.0952C397.509 80.5912 397.905 80.2012 398.397 79.9252C398.901 79.6372 399.495 79.4932 400.179 79.4932V81.6172H399.657C398.853 81.6172 398.241 81.8212 397.821 82.2292C397.413 82.6372 397.209 83.3452 397.209 84.3532V89.5732H395.157V79.6552H397.209V81.0952ZM404.459 81.3292V86.8192C404.459 87.1912 404.543 87.4612 404.711 87.6292C404.891 87.7852 405.191 87.8632 405.611 87.8632H406.871V89.5732H405.251C404.327 89.5732 403.619 89.3572 403.127 88.9252C402.635 88.4932 402.389 87.7912 402.389 86.8192V81.3292H401.219V79.6552H402.389V77.1892H404.459V79.6552H406.871V81.3292H404.459Z" fill="black"/>
<path d="M309.906 313.949C318.46 305.565 318.46 291.97 309.906 283.585C301.353 275.201 287.486 275.201 278.932 283.585C270.379 291.97 270.379 305.565 278.932 313.949C287.486 322.334 301.353 322.334 309.906 313.949Z" fill="white"/>
<path d="M298.352 307.177H289.002C288.887 307.174 288.774 307.194 288.667 307.235C288.561 307.277 288.464 307.339 288.383 307.418C288.302 307.498 288.239 307.592 288.196 307.697C288.154 307.801 288.134 307.913 288.137 308.025C288.134 308.138 288.154 308.251 288.196 308.356C288.238 308.462 288.301 308.558 288.382 308.639C288.463 308.72 288.559 308.785 288.665 308.829C288.772 308.873 288.886 308.896 289.002 308.896H291.69V309.148C291.69 309.537 291.848 309.91 292.128 310.185C292.409 310.46 292.789 310.614 293.186 310.614H294.191C294.388 310.617 294.584 310.581 294.767 310.509C294.95 310.436 295.116 310.328 295.256 310.192C295.395 310.055 295.506 309.892 295.58 309.713C295.654 309.533 295.69 309.341 295.687 309.148V308.896H298.352C298.587 308.896 298.813 308.804 298.98 308.641C299.146 308.477 299.24 308.256 299.24 308.025C299.24 307.912 299.217 307.799 299.172 307.695C299.127 307.591 299.061 307.496 298.978 307.417C298.896 307.338 298.798 307.276 298.69 307.235C298.582 307.194 298.467 307.174 298.352 307.177Z" fill="url(#paint10_linear_2507_189)"/>
<path d="M300.127 287.402C298.208 285.74 295.698 284.886 293.142 285.023C290.585 285.161 288.186 286.279 286.463 288.136C284.74 289.993 283.833 292.441 283.936 294.949C284.039 297.457 285.144 299.825 287.014 301.54C287.542 301.933 287.972 302.438 288.272 303.017C288.572 303.597 288.733 304.236 288.744 304.886V305.206C288.744 305.407 288.825 305.599 288.97 305.741C289.114 305.883 289.31 305.963 289.515 305.963H297.719C297.924 305.963 298.12 305.883 298.265 305.741C298.409 305.599 298.491 305.407 298.491 305.206V304.886C298.506 304.237 298.67 303.6 298.969 303.021C299.269 302.442 299.696 301.936 300.22 301.54C301.215 300.651 302.009 299.568 302.553 298.361C303.096 297.153 303.376 295.848 303.376 294.528C303.372 293.184 303.081 291.855 302.522 290.628C301.962 289.4 301.146 288.302 300.127 287.402ZM292.624 300.486L289.351 297.278L290.871 295.651L292.507 297.255L298 291.87L299.706 293.543L292.624 300.486Z" fill="url(#paint11_linear_2507_189)"/>
<path d="M122.92 169.823C122.194 169.485 121.341 169.45 120.604 169.693C122.128 169.693 123.151 170.375 123.665 171.377C123.972 171.973 123.481 172.645 122.821 172.645C123.48 172.645 123.973 173.315 123.665 173.912C123.139 174.939 122.015 175.606 120.793 175.606C120.773 175.606 117.413 175.319 117.413 175.319L115.037 176.429C114.702 176.585 114.328 176.442 114.182 176.17L112.592 173.209C112.443 172.922 112.552 172.58 112.84 172.423L114.918 171.322L116.389 168.851C116.618 166.945 117.632 165.196 119.242 163.966C119.65 163.651 120.256 163.707 120.584 164.086C120.922 164.465 120.862 165.021 120.455 165.335C120.007 165.687 119.61 166.085 119.292 166.52C120.067 166.029 120.962 165.696 121.946 165.585C122.473 165.52 122.95 165.863 123.009 166.353C123.079 166.843 122.711 167.288 122.184 167.343C121.608 167.408 121.071 167.593 120.604 167.852C121.538 167.662 122.704 167.747 123.755 168.222C124.232 168.444 124.431 168.972 124.192 169.416C123.964 169.85 123.387 170.036 122.92 169.823ZM121.946 172.136C121.727 171.72 121.29 171.46 120.793 171.46C120.625 171.46 120.46 171.49 120.305 171.55C120.151 171.609 120.01 171.696 119.892 171.806C119.774 171.916 119.68 172.047 119.616 172.191C119.552 172.335 119.52 172.489 119.52 172.645C119.52 173.358 120.157 173.829 120.793 173.829C121.29 173.829 121.727 173.57 121.946 173.154C122.105 172.839 122.433 172.654 122.781 172.645C122.433 172.636 122.105 172.45 121.946 172.136ZM135.355 170.896C135.504 171.183 135.395 171.525 135.107 171.683L133.029 172.784L131.558 175.254C131.33 177.16 130.316 178.909 128.705 180.139C128.314 180.443 127.711 180.411 127.363 180.019C127.025 179.64 127.085 179.085 127.493 178.77C127.94 178.418 128.337 178.021 128.656 177.586C127.88 178.076 126.986 178.409 126.001 178.52C125.643 178.604 125.016 178.332 124.938 177.752C124.868 177.262 125.236 176.818 125.763 176.762C126.34 176.697 126.876 176.512 127.343 176.253C126.409 176.444 125.243 176.358 124.192 175.883C123.715 175.661 123.516 175.134 123.755 174.69C123.984 174.255 124.56 174.07 125.027 174.282C125.753 174.62 126.607 174.655 127.343 174.412C125.819 174.412 124.796 173.73 124.282 172.728C123.975 172.132 124.466 171.46 125.127 171.46C124.467 171.46 123.974 170.79 124.282 170.193C124.784 169.214 125.857 168.498 127.214 168.5L130.534 168.786L132.91 167.676C133.247 167.519 133.619 167.664 133.765 167.935L135.355 170.896ZM127.155 170.276C126.658 170.276 126.22 170.535 126.001 170.952C125.842 171.266 125.514 171.451 125.166 171.46C125.514 171.47 125.842 171.655 126.001 171.969C126.22 172.386 126.658 172.645 127.155 172.645C127.322 172.645 127.487 172.615 127.642 172.556C127.797 172.496 127.937 172.409 128.055 172.299C128.174 172.189 128.267 172.058 128.331 171.914C128.395 171.77 128.427 171.616 128.427 171.46C128.427 170.747 127.79 170.276 127.155 170.276Z" fill="#B86EB9"/>
<defs>
<filter id="filter0_d_2507_189" x="55.0156" y="141.017" width="428.82" height="139.721" filterUnits="userSpaceOnUse" color-interpolation-filters="sRGB">
<feFlood flood-opacity="0" result="BackgroundImageFix"/>
<feColorMatrix in="SourceAlpha" type="matrix" values="0 0 0 0 0 0 0 0 0 0 0 0 0 0 0 0 0 0 127 0" result="hardAlpha"/>
<feOffset/>
<feGaussianBlur stdDeviation="10"/>
<feColorMatrix type="matrix" values="0 0 0 0 0 0 0 0 0 0 0 0 0 0 0 0 0 0 0.1 0"/>
<feBlend mode="normal" in2="BackgroundImageFix" result="effect1_dropShadow_2507_189"/>
<feBlend mode="normal" in="SourceGraphic" in2="effect1_dropShadow_2507_189" result="shape"/>
</filter>
<filter id="filter1_d_2507_189" x="225.182" y="1.04199" width="428.818" height="139.721" filterUnits="userSpaceOnUse" color-interpolation-filters="sRGB">
<feFlood flood-opacity="0" result="BackgroundImageFix"/>
<feColorMatrix in="SourceAlpha" type="matrix" values="0 0 0 0 0 0 0 0 0 0 0 0 0 0 0 0 0 0 127 0" result="hardAlpha"/>
<feOffset/>
<feGaussianBlur stdDeviation="10"/>
<feColorMatrix type="matrix" values="0 0 0 0 0 0 0 0 0 0 0 0 0 0 0 0 0 0 0.1 0"/>
<feBlend mode="normal" in2="BackgroundImageFix" result="effect1_dropShadow_2507_189"/>
<feBlend mode="normal" in="SourceGraphic" in2="effect1_dropShadow_2507_189" result="shape"/>
</filter>
<filter id="filter2_d_2507_189" x="224.76" y="268.053" width="428.502" height="139.721" filterUnits="userSpaceOnUse" color-interpolation-filters="sRGB">
<feFlood flood-opacity="0" result="BackgroundImageFix"/>
<feColorMatrix in="SourceAlpha" type="matrix" values="0 0 0 0 0 0 0 0 0 0 0 0 0 0 0 0 0 0 127 0" result="hardAlpha"/>
<feOffset/>
<feGaussianBlur stdDeviation="10"/>
<feColorMatrix type="matrix" values="0 0 0 0 0 0 0 0 0 0 0 0 0 0 0 0 0 0 0.1 0"/>
<feBlend mode="normal" in2="BackgroundImageFix" result="effect1_dropShadow_2507_189"/>
<feBlend mode="normal" in="SourceGraphic" in2="effect1_dropShadow_2507_189" result="shape"/>
</filter>
<linearGradient id="paint0_linear_2507_189" x1="6949.07" y1="10516" x2="16660" y2="10516" gradientUnits="userSpaceOnUse">
<stop stop-color="#B86EB9"/>
<stop offset="1" stop-color="#6A82FB"/>
</linearGradient>
<linearGradient id="paint1_linear_2507_189" x1="5721.93" y1="8694.83" x2="13671.6" y2="8694.83" gradientUnits="userSpaceOnUse">
<stop stop-color="#B86EB9"/>
<stop offset="1" stop-color="#6A82FB"/>
</linearGradient>
<linearGradient id="paint2_linear_2507_189" x1="7119.23" y1="10323.2" x2="16830.2" y2="10323.2" gradientUnits="userSpaceOnUse">
<stop stop-color="#FC5C7D"/>
<stop offset="1" stop-color="#6A82FB"/>
</linearGradient>
<radialGradient id="paint3_radial_2507_189" cx="0" cy="0" r="1" gradientUnits="userSpaceOnUse" gradientTransform="translate(7512.79 6395.15) scale(1707.86 1679.63)">
<stop/>
<stop offset="1" stop-color="white"/>
</radialGradient>
<linearGradient id="paint4_linear_2507_189" x1="5823.97" y1="8502.1" x2="13678.4" y2="8502.1" gradientUnits="userSpaceOnUse">
<stop stop-color="#FC5C7D"/>
<stop offset="1" stop-color="#6A82FB"/>
</linearGradient>
<linearGradient id="paint5_linear_2507_189" x1="1351.98" y1="1624.94" x2="2846.4" y2="1624.94" gradientUnits="userSpaceOnUse">
<stop stop-color="#FC5C7D"/>
<stop offset="1" stop-color="#6A82FB"/>
</linearGradient>
<radialGradient id="paint6_radial_2507_189" cx="0" cy="0" r="1" gradientUnits="userSpaceOnUse" gradientTransform="translate(7510.2 11612.6) scale(1707.24 1673.62)">
<stop/>
<stop offset="1" stop-color="white"/>
</radialGradient>
<linearGradient id="paint7_linear_2507_189" x1="7119.23" y1="10641.7" x2="16830.2" y2="10641.7" gradientUnits="userSpaceOnUse">
<stop stop-color="#6A82FB"/>
<stop offset="1" stop-color="#6A82FB"/>
</linearGradient>
<radialGradient id="paint8_radial_2507_189" cx="0" cy="0" r="1" gradientUnits="userSpaceOnUse" gradientTransform="translate(7510.21 16851) scale(1707.24 1673.62)">
<stop/>
<stop offset="1" stop-color="white"/>
</radialGradient>
<linearGradient id="paint9_linear_2507_189" x1="5858.03" y1="8821.32" x2="13760.1" y2="8821.32" gradientUnits="userSpaceOnUse">
<stop stop-color="#6A82FB"/>
<stop offset="1" stop-color="#6A82FB"/>
</linearGradient>
<linearGradient id="paint10_linear_2507_189" x1="800.22" y1="548.461" x2="1515.83" y2="548.461" gradientUnits="userSpaceOnUse">
<stop stop-color="#6A82FB"/>
<stop offset="1" stop-color="#6A82FB"/>
</linearGradient>
<linearGradient id="paint11_linear_2507_189" x1="1180.88" y1="1755.74" x2="2434.32" y2="1755.74" gradientUnits="userSpaceOnUse">
<stop stop-color="#6A82FB"/>
<stop offset="1" stop-color="#6A82FB"/>
</linearGradient>
</defs>
</svg>
