<svg width="685" height="186" viewBox="0 0 685 186" fill="none" xmlns="http://www.w3.org/2000/svg">
<g filter="url(#filter0_d_1242_113)">
<rect width="551.917" height="76" transform="matrix(-1 0 0 1 592.918 55)" fill="#28A0CF"/>
<path d="M565.809 95.1875H571.277C572.183 95.1875 572.918 94.453 572.918 93.5469V77.1406C572.918 76.2345 572.183 75.5 571.277 75.5H565.809C564.902 75.5 564.168 76.2345 564.168 77.1406V93.5469C564.168 94.453 564.902 95.1875 565.809 95.1875ZM568.543 78.2344C569.449 78.2344 570.184 78.9689 570.184 79.875C570.184 80.7811 569.449 81.5156 568.543 81.5156C567.637 81.5156 566.902 80.7811 566.902 79.875C566.902 78.9689 567.637 78.2344 568.543 78.2344ZM546.668 104.932C546.668 102.032 548.443 100.406 548.943 98.4688H541.989C539.706 98.4688 537.929 96.5721 537.918 94.4972C537.912 93.271 538.434 91.9509 539.247 91.1341L539.254 91.1266C538.582 89.5313 538.691 87.296 539.891 85.6942C539.297 83.924 539.895 81.7495 541.011 80.5838C540.717 79.3808 540.857 78.357 541.431 77.5328C542.826 75.5282 546.284 75.5 549.208 75.5L549.403 75.5001C552.704 75.5012 555.405 76.7031 557.576 77.6688C558.667 78.1541 560.093 78.7548 561.175 78.7747C561.622 78.7829 561.98 79.1477 561.98 79.5949V94.208C561.98 94.4268 561.893 94.6367 561.737 94.7905C559.029 97.4664 557.865 100.299 555.645 102.523C554.633 103.537 554.265 105.068 553.909 106.549C553.605 107.814 552.97 110.5 551.59 110.5C549.949 110.5 546.668 109.953 546.668 104.932Z" fill="white"/>
<path d="M140.97 89.432C140.97 90.328 140.754 91.168 140.322 91.952C139.906 92.736 139.242 93.368 138.33 93.848C137.434 94.328 136.298 94.568 134.922 94.568H132.114V101H128.754V84.248H134.922C136.218 84.248 137.322 84.472 138.234 84.92C139.146 85.368 139.826 85.984 140.274 86.768C140.738 87.552 140.97 88.44 140.97 89.432ZM134.778 91.856C135.706 91.856 136.394 91.648 136.842 91.232C137.29 90.8 137.514 90.2 137.514 89.432C137.514 87.8 136.602 86.984 134.778 86.984H132.114V91.856H134.778ZM155.715 94.064C155.715 94.544 155.683 94.976 155.619 95.36H145.899C145.979 96.32 146.315 97.072 146.907 97.616C147.499 98.16 148.227 98.432 149.091 98.432C150.339 98.432 151.227 97.896 151.755 96.824H155.379C154.995 98.104 154.259 99.16 153.171 99.992C152.083 100.808 150.747 101.216 149.163 101.216C147.883 101.216 146.731 100.936 145.707 100.376C144.699 99.8 143.907 98.992 143.331 97.952C142.771 96.912 142.491 95.712 142.491 94.352C142.491 92.976 142.771 91.768 143.331 90.728C143.891 89.688 144.675 88.888 145.683 88.328C146.691 87.768 147.851 87.488 149.163 87.488C150.427 87.488 151.555 87.76 152.547 88.304C153.555 88.848 154.331 89.624 154.875 90.632C155.435 91.624 155.715 92.768 155.715 94.064ZM152.235 93.104C152.219 92.24 151.907 91.552 151.299 91.04C150.691 90.512 149.947 90.248 149.067 90.248C148.235 90.248 147.531 90.504 146.955 91.016C146.395 91.512 146.051 92.208 145.923 93.104H152.235ZM165.536 87.512C167.12 87.512 168.4 88.016 169.376 89.024C170.352 90.016 170.84 91.408 170.84 93.2V101H167.48V93.656C167.48 92.6 167.216 91.792 166.688 91.232C166.16 90.656 165.44 90.368 164.528 90.368C163.6 90.368 162.864 90.656 162.32 91.232C161.792 91.792 161.528 92.6 161.528 93.656V101H158.168V87.704H161.528V89.36C161.976 88.784 162.544 88.336 163.232 88.016C163.936 87.68 164.704 87.512 165.536 87.512ZM173.171 94.304C173.171 92.96 173.435 91.768 173.963 90.728C174.507 89.688 175.235 88.888 176.147 88.328C177.075 87.768 178.107 87.488 179.243 87.488C180.235 87.488 181.099 87.688 181.835 88.088C182.587 88.488 183.187 88.992 183.635 89.6V87.704H187.019V101H183.635V99.056C183.203 99.68 182.603 100.2 181.835 100.616C181.083 101.016 180.211 101.216 179.219 101.216C178.099 101.216 177.075 100.928 176.147 100.352C175.235 99.776 174.507 98.968 173.963 97.928C173.435 96.872 173.171 95.664 173.171 94.304ZM183.635 94.352C183.635 93.536 183.475 92.84 183.155 92.264C182.835 91.672 182.403 91.224 181.859 90.92C181.315 90.6 180.731 90.44 180.107 90.44C179.483 90.44 178.907 90.592 178.379 90.896C177.851 91.2 177.419 91.648 177.083 92.24C176.763 92.816 176.603 93.504 176.603 94.304C176.603 95.104 176.763 95.808 177.083 96.416C177.419 97.008 177.851 97.464 178.379 97.784C178.923 98.104 179.499 98.264 180.107 98.264C180.731 98.264 181.315 98.112 181.859 97.808C182.403 97.488 182.835 97.04 183.155 96.464C183.475 95.872 183.635 95.168 183.635 94.352ZM193.661 83.24V101H190.301V83.24L193.661 83.24ZM200.892 90.464V96.896C200.892 97.344 200.996 97.672 201.204 97.88C201.428 98.072 201.796 98.168 202.308 98.168H203.868V101H201.756C198.924 101 197.508 99.624 197.508 96.872V90.464H195.924V87.704H197.508V84.416H200.892V87.704H203.868V90.464H200.892ZM207.989 86.12C207.397 86.12 206.901 85.936 206.501 85.568C206.117 85.184 205.925 84.712 205.925 84.152C205.925 83.592 206.117 83.128 206.501 82.76C206.901 82.376 207.397 82.184 207.989 82.184C208.581 82.184 209.069 82.376 209.453 82.76C209.853 83.128 210.053 83.592 210.053 84.152C210.053 84.712 209.853 85.184 209.453 85.568C209.069 85.936 208.581 86.12 207.989 86.12ZM209.645 87.704V101H206.285V87.704H209.645ZM225.325 94.064C225.325 94.544 225.293 94.976 225.229 95.36H215.509C215.589 96.32 215.925 97.072 216.517 97.616C217.109 98.16 217.837 98.432 218.701 98.432C219.949 98.432 220.837 97.896 221.365 96.824H224.989C224.605 98.104 223.869 99.16 222.781 99.992C221.693 100.808 220.357 101.216 218.773 101.216C217.493 101.216 216.341 100.936 215.317 100.376C214.309 99.8 213.517 98.992 212.941 97.952C212.381 96.912 212.101 95.712 212.101 94.352C212.101 92.976 212.381 91.768 212.941 90.728C213.501 89.688 214.285 88.888 215.293 88.328C216.301 87.768 217.461 87.488 218.773 87.488C220.037 87.488 221.165 87.76 222.157 88.304C223.165 88.848 223.941 89.624 224.485 90.632C225.045 91.624 225.325 92.768 225.325 94.064ZM221.845 93.104C221.829 92.24 221.517 91.552 220.909 91.04C220.301 90.512 219.557 90.248 218.677 90.248C217.845 90.248 217.141 90.504 216.565 91.016C216.005 91.512 215.661 92.208 215.533 93.104H221.845ZM232.865 101.216C231.777 101.216 230.801 101.024 229.937 100.64C229.073 100.24 228.385 99.704 227.873 99.032C227.377 98.36 227.105 97.616 227.057 96.8H230.441C230.505 97.312 230.753 97.736 231.185 98.072C231.633 98.408 232.185 98.576 232.841 98.576C233.481 98.576 233.977 98.448 234.329 98.192C234.697 97.936 234.881 97.608 234.881 97.208C234.881 96.776 234.657 96.456 234.209 96.248C233.777 96.024 233.081 95.784 232.121 95.528C231.129 95.288 230.313 95.04 229.673 94.784C229.049 94.528 228.505 94.136 228.041 93.608C227.593 93.08 227.369 92.368 227.369 91.472C227.369 90.736 227.577 90.064 227.993 89.456C228.425 88.848 229.033 88.368 229.817 88.016C230.617 87.664 231.553 87.488 232.625 87.488C234.209 87.488 235.473 87.888 236.417 88.688C237.361 89.472 237.881 90.536 237.977 91.88H234.761C234.713 91.352 234.489 90.936 234.089 90.632C233.705 90.312 233.185 90.152 232.529 90.152C231.921 90.152 231.449 90.264 231.113 90.488C230.793 90.712 230.633 91.024 230.633 91.424C230.633 91.872 230.857 92.216 231.305 92.456C231.753 92.68 232.449 92.912 233.393 93.152C234.353 93.392 235.145 93.64 235.769 93.896C236.393 94.152 236.929 94.552 237.377 95.096C237.841 95.624 238.081 96.328 238.097 97.208C238.097 97.976 237.881 98.664 237.449 99.272C237.033 99.88 236.425 100.36 235.625 100.712C234.841 101.048 233.921 101.216 232.865 101.216ZM252.67 90.464H250.342V101H246.934V90.464H245.422V87.704H246.934V87.032C246.934 85.4 247.398 84.2 248.326 83.432C249.254 82.664 250.654 82.304 252.526 82.352V85.184C251.71 85.168 251.142 85.304 250.822 85.592C250.502 85.88 250.342 86.4 250.342 87.152V87.704H252.67V90.464ZM260.751 101.216C259.471 101.216 258.319 100.936 257.295 100.376C256.271 99.8 255.463 98.992 254.871 97.952C254.295 96.912 254.007 95.712 254.007 94.352C254.007 92.992 254.303 91.792 254.895 90.752C255.503 89.712 256.327 88.912 257.367 88.352C258.407 87.776 259.567 87.488 260.847 87.488C262.127 87.488 263.287 87.776 264.327 88.352C265.367 88.912 266.183 89.712 266.775 90.752C267.383 91.792 267.687 92.992 267.687 94.352C267.687 95.712 267.375 96.912 266.751 97.952C266.143 98.992 265.311 99.8 264.255 100.376C263.215 100.936 262.047 101.216 260.751 101.216ZM260.751 98.288C261.359 98.288 261.927 98.144 262.455 97.856C262.999 97.552 263.431 97.104 263.751 96.512C264.071 95.92 264.231 95.2 264.231 94.352C264.231 93.088 263.895 92.12 263.223 91.448C262.567 90.76 261.759 90.416 260.799 90.416C259.839 90.416 259.031 90.76 258.375 91.448C257.735 92.12 257.415 93.088 257.415 94.352C257.415 95.616 257.727 96.592 258.351 97.28C258.991 97.952 259.791 98.288 260.751 98.288ZM273.512 89.768C273.944 89.064 274.504 88.512 275.192 88.112C275.896 87.712 276.696 87.512 277.592 87.512V91.04H276.704C275.648 91.04 274.848 91.288 274.304 91.784C273.776 92.28 273.512 93.144 273.512 94.376V101H270.152V87.704H273.512V89.768ZM297.79 89.432C297.79 90.328 297.574 91.168 297.142 91.952C296.726 92.736 296.062 93.368 295.15 93.848C294.254 94.328 293.118 94.568 291.742 94.568H288.934V101L285.574 101V84.248H291.742C293.038 84.248 294.142 84.472 295.054 84.92C295.966 85.368 296.646 85.984 297.094 86.768C297.558 87.552 297.79 88.44 297.79 89.432ZM291.598 91.856C292.526 91.856 293.214 91.648 293.662 91.232C294.11 90.8 294.334 90.2 294.334 89.432C294.334 87.8 293.422 86.984 291.598 86.984H288.934V91.856H291.598ZM306.08 101.216C304.8 101.216 303.648 100.936 302.624 100.376C301.6 99.8 300.792 98.992 300.2 97.952C299.624 96.912 299.336 95.712 299.336 94.352C299.336 92.992 299.632 91.792 300.224 90.752C300.832 89.712 301.656 88.912 302.696 88.352C303.736 87.776 304.896 87.488 306.176 87.488C307.456 87.488 308.616 87.776 309.656 88.352C310.696 88.912 311.512 89.712 312.104 90.752C312.712 91.792 313.016 92.992 313.016 94.352C313.016 95.712 312.704 96.912 312.08 97.952C311.472 98.992 310.64 99.8 309.584 100.376C308.544 100.936 307.376 101.216 306.08 101.216ZM306.08 98.288C306.688 98.288 307.256 98.144 307.784 97.856C308.328 97.552 308.76 97.104 309.08 96.512C309.4 95.92 309.56 95.2 309.56 94.352C309.56 93.088 309.224 92.12 308.552 91.448C307.896 90.76 307.088 90.416 306.128 90.416C305.168 90.416 304.36 90.76 303.704 91.448C303.064 92.12 302.744 93.088 302.744 94.352C302.744 95.616 303.056 96.592 303.68 97.28C304.32 97.952 305.12 98.288 306.08 98.288ZM321.384 101.216C320.104 101.216 318.952 100.936 317.928 100.376C316.904 99.8 316.096 98.992 315.504 97.952C314.928 96.912 314.64 95.712 314.64 94.352C314.64 92.992 314.936 91.792 315.528 90.752C316.136 89.712 316.96 88.912 318 88.352C319.04 87.776 320.2 87.488 321.48 87.488C322.76 87.488 323.92 87.776 324.96 88.352C326 88.912 326.816 89.712 327.408 90.752C328.016 91.792 328.32 92.992 328.32 94.352C328.32 95.712 328.008 96.912 327.384 97.952C326.776 98.992 325.944 99.8 324.888 100.376C323.848 100.936 322.68 101.216 321.384 101.216ZM321.384 98.288C321.992 98.288 322.56 98.144 323.088 97.856C323.632 97.552 324.064 97.104 324.384 96.512C324.704 95.92 324.864 95.2 324.864 94.352C324.864 93.088 324.528 92.12 323.856 91.448C323.2 90.76 322.392 90.416 321.432 90.416C320.472 90.416 319.664 90.76 319.008 91.448C318.368 92.12 318.048 93.088 318.048 94.352C318.048 95.616 318.36 96.592 318.984 97.28C319.624 97.952 320.424 98.288 321.384 98.288ZM334.145 89.768C334.577 89.064 335.137 88.512 335.825 88.112C336.529 87.712 337.329 87.512 338.225 87.512V91.04H337.337C336.281 91.04 335.481 91.288 334.937 91.784C334.409 92.28 334.145 93.144 334.145 94.376V101H330.785V87.704H334.145V89.768ZM356.551 84.248V86.96H349.567V91.256H354.919V93.92H349.567V101H346.207V84.248H356.551ZM362.293 84.248V101H358.933V84.248H362.293ZM371.397 101.168C370.229 101.168 369.173 100.968 368.229 100.568C367.301 100.168 366.565 99.592 366.021 98.84C365.477 98.088 365.197 97.2 365.181 96.176H368.781C368.829 96.864 369.069 97.408 369.501 97.808C369.949 98.208 370.557 98.408 371.325 98.408C372.109 98.408 372.725 98.224 373.173 97.856C373.621 97.472 373.845 96.976 373.845 96.368C373.845 95.872 373.693 95.464 373.389 95.144C373.085 94.824 372.701 94.576 372.237 94.4C371.789 94.208 371.165 94 370.365 93.776C369.277 93.456 368.389 93.144 367.701 92.84C367.029 92.52 366.445 92.048 365.949 91.424C365.469 90.784 365.229 89.936 365.229 88.88C365.229 87.888 365.477 87.024 365.973 86.288C366.469 85.552 367.165 84.992 368.061 84.608C368.957 84.208 369.981 84.008 371.133 84.008C372.861 84.008 374.261 84.432 375.333 85.28C376.421 86.112 377.021 87.28 377.133 88.784H373.437C373.405 88.208 373.157 87.736 372.693 87.368C372.245 86.984 371.645 86.792 370.893 86.792C370.237 86.792 369.709 86.96 369.309 87.296C368.925 87.632 368.733 88.12 368.733 88.76C368.733 89.208 368.877 89.584 369.165 89.888C369.469 90.176 369.837 90.416 370.269 90.608C370.717 90.784 371.341 90.992 372.141 91.232C373.229 91.552 374.117 91.872 374.805 92.192C375.493 92.512 376.085 92.992 376.581 93.632C377.077 94.272 377.325 95.112 377.325 96.152C377.325 97.048 377.093 97.88 376.629 98.648C376.165 99.416 375.485 100.032 374.589 100.496C373.693 100.944 372.629 101.168 371.397 101.168ZM398.502 84.248V101H395.142V90.104L390.654 101H388.11L383.598 90.104V101H380.238V84.248H384.054L389.382 96.704L394.71 84.248H398.502ZM412.096 97.808H405.424L404.32 101H400.792L406.816 84.224H410.728L416.752 101H413.2L412.096 97.808ZM411.184 95.12L408.76 88.112L406.336 95.12H411.184ZM436.386 89.288C436.002 88.584 435.474 88.048 434.802 87.68C434.13 87.312 433.346 87.128 432.45 87.128C431.458 87.128 430.578 87.352 429.81 87.8C429.042 88.248 428.442 88.888 428.01 89.72C427.578 90.552 427.362 91.512 427.362 92.6C427.362 93.72 427.578 94.696 428.01 95.528C428.458 96.36 429.074 97 429.858 97.448C430.642 97.896 431.554 98.12 432.594 98.12C433.874 98.12 434.922 97.784 435.738 97.112C436.554 96.424 437.09 95.472 437.346 94.256H431.586V91.688H440.658V94.616C440.434 95.784 439.954 96.864 439.218 97.856C438.482 98.848 437.53 99.648 436.362 100.256C435.21 100.848 433.914 101.144 432.474 101.144C430.858 101.144 429.394 100.784 428.082 100.064C426.786 99.328 425.762 98.312 425.01 97.016C424.274 95.72 423.906 94.248 423.906 92.6C423.906 90.952 424.274 89.48 425.01 88.184C425.762 86.872 426.786 85.856 428.082 85.136C429.394 84.4 430.85 84.032 432.45 84.032C434.338 84.032 435.978 84.496 437.37 85.424C438.762 86.336 439.722 87.624 440.25 89.288H436.386ZM446.504 89.768C446.936 89.064 447.496 88.512 448.184 88.112C448.888 87.712 449.688 87.512 450.584 87.512V91.04H449.696C448.64 91.04 447.84 91.288 447.296 91.784C446.768 92.28 446.504 93.144 446.504 94.376V101H443.144V87.704H446.504V89.768ZM451.983 94.304C451.983 92.96 452.247 91.768 452.775 90.728C453.319 89.688 454.047 88.888 454.959 88.328C455.887 87.768 456.919 87.488 458.055 87.488C459.047 87.488 459.911 87.688 460.647 88.088C461.399 88.488 461.999 88.992 462.447 89.6V87.704H465.831V101H462.447V99.056C462.015 99.68 461.415 100.2 460.647 100.616C459.895 101.016 459.023 101.216 458.031 101.216C456.911 101.216 455.887 100.928 454.959 100.352C454.047 99.776 453.319 98.968 452.775 97.928C452.247 96.872 451.983 95.664 451.983 94.304ZM462.447 94.352C462.447 93.536 462.287 92.84 461.967 92.264C461.647 91.672 461.215 91.224 460.671 90.92C460.127 90.6 459.543 90.44 458.919 90.44C458.295 90.44 457.719 90.592 457.191 90.896C456.663 91.2 456.231 91.648 455.895 92.24C455.575 92.816 455.415 93.504 455.415 94.304C455.415 95.104 455.575 95.808 455.895 96.416C456.231 97.008 456.663 97.464 457.191 97.784C457.735 98.104 458.311 98.264 458.919 98.264C459.543 98.264 460.127 98.112 460.671 97.808C461.215 97.488 461.647 97.04 461.967 96.464C462.287 95.872 462.447 95.168 462.447 94.352ZM468.249 94.304C468.249 92.96 468.513 91.768 469.041 90.728C469.585 89.688 470.321 88.888 471.249 88.328C472.177 87.768 473.209 87.488 474.345 87.488C475.209 87.488 476.033 87.68 476.817 88.064C477.601 88.432 478.225 88.928 478.689 89.552V83.24H482.097V101H478.689V99.032C478.273 99.688 477.689 100.216 476.937 100.616C476.185 101.016 475.313 101.216 474.321 101.216C473.201 101.216 472.177 100.928 471.249 100.352C470.321 99.776 469.585 98.968 469.041 97.928C468.513 96.872 468.249 95.664 468.249 94.304ZM478.713 94.352C478.713 93.536 478.553 92.84 478.233 92.264C477.913 91.672 477.481 91.224 476.937 90.92C476.393 90.6 475.809 90.44 475.185 90.44C474.561 90.44 473.985 90.592 473.457 90.896C472.929 91.2 472.497 91.648 472.161 92.24C471.841 92.816 471.681 93.504 471.681 94.304C471.681 95.104 471.841 95.808 472.161 96.416C472.497 97.008 472.929 97.464 473.457 97.784C474.001 98.104 474.577 98.264 475.185 98.264C475.809 98.264 476.393 98.112 476.937 97.808C477.481 97.488 477.913 97.04 478.233 96.464C478.553 95.872 478.713 95.168 478.713 94.352ZM497.739 94.064C497.739 94.544 497.707 94.976 497.643 95.36H487.923C488.003 96.32 488.339 97.072 488.931 97.616C489.523 98.16 490.251 98.432 491.115 98.432C492.363 98.432 493.251 97.896 493.779 96.824H497.403C497.019 98.104 496.283 99.16 495.195 99.992C494.107 100.808 492.771 101.216 491.187 101.216C489.907 101.216 488.755 100.936 487.731 100.376C486.723 99.8 485.931 98.992 485.355 97.952C484.795 96.912 484.515 95.712 484.515 94.352C484.515 92.976 484.795 91.768 485.355 90.728C485.915 89.688 486.699 88.888 487.707 88.328C488.715 87.768 489.875 87.488 491.187 87.488C492.451 87.488 493.579 87.76 494.571 88.304C495.579 88.848 496.355 89.624 496.899 90.632C497.459 91.624 497.739 92.768 497.739 94.064ZM494.259 93.104C494.243 92.24 493.931 91.552 493.323 91.04C492.715 90.512 491.971 90.248 491.091 90.248C490.259 90.248 489.555 90.504 488.979 91.016C488.419 91.512 488.075 92.208 487.947 93.104H494.259ZM505.279 101.216C504.191 101.216 503.215 101.024 502.351 100.64C501.487 100.24 500.799 99.704 500.287 99.032C499.791 98.36 499.519 97.616 499.471 96.8H502.855C502.919 97.312 503.167 97.736 503.599 98.072C504.047 98.408 504.599 98.576 505.255 98.576C505.895 98.576 506.391 98.448 506.743 98.192C507.111 97.936 507.295 97.608 507.295 97.208C507.295 96.776 507.071 96.456 506.623 96.248C506.191 96.024 505.495 95.784 504.535 95.528C503.543 95.288 502.727 95.04 502.087 94.784C501.463 94.528 500.919 94.136 500.455 93.608C500.007 93.08 499.783 92.368 499.783 91.472C499.783 90.736 499.991 90.064 500.407 89.456C500.839 88.848 501.447 88.368 502.231 88.016C503.031 87.664 503.967 87.488 505.039 87.488C506.623 87.488 507.887 87.888 508.831 88.688C509.775 89.472 510.295 90.536 510.391 91.88H507.175C507.127 91.352 506.903 90.936 506.503 90.632C506.119 90.312 505.599 90.152 504.943 90.152C504.335 90.152 503.863 90.264 503.527 90.488C503.207 90.712 503.047 91.024 503.047 91.424C503.047 91.872 503.271 92.216 503.719 92.456C504.167 92.68 504.863 92.912 505.807 93.152C506.767 93.392 507.559 93.64 508.183 93.896C508.807 94.152 509.343 94.552 509.791 95.096C510.255 95.624 510.495 96.328 510.511 97.208C510.511 97.976 510.295 98.664 509.863 99.272C509.447 99.88 508.839 100.36 508.039 100.712C507.255 101.048 506.335 101.216 505.279 101.216ZM514.757 101.168C514.149 101.168 513.645 100.984 513.245 100.616C512.861 100.232 512.669 99.76 512.669 99.2C512.669 98.64 512.861 98.176 513.245 97.808C513.645 97.424 514.149 97.232 514.757 97.232C515.349 97.232 515.837 97.424 516.221 97.808C516.605 98.176 516.797 98.64 516.797 99.2C516.797 99.76 516.605 100.232 516.221 100.616C515.837 100.984 515.349 101.168 514.757 101.168ZM514.757 91.232C514.149 91.232 513.645 91.048 513.245 90.68C512.861 90.296 512.669 89.824 512.669 89.264C512.669 88.704 512.861 88.24 513.245 87.872C513.645 87.488 514.149 87.296 514.757 87.296C515.349 87.296 515.837 87.488 516.221 87.872C516.605 88.24 516.797 88.704 516.797 89.264C516.797 89.824 516.605 90.296 516.221 90.68C515.837 91.048 515.349 91.232 514.757 91.232Z" fill="white"/>
<path d="M125.274 7L40.9994 55H125.576L125.274 7Z" fill="#016187"/>
<path d="M684 93L592.104 35.8423V150.158L684 93Z" fill="#28A0CF"/>
</g>
<defs>
<filter id="filter0_d_1242_113" x="-0.000976562" y="0" width="685.001" height="185.158" filterUnits="userSpaceOnUse" color-interpolation-filters="sRGB">
<feFlood flood-opacity="0" result="BackgroundImageFix"/>
<feColorMatrix in="SourceAlpha" type="matrix" values="0 0 0 0 0 0 0 0 0 0 0 0 0 0 0 0 0 0 127 0" result="hardAlpha"/>
<feOffset dx="-20" dy="14"/>
<feGaussianBlur stdDeviation="10.5"/>
<feComposite in2="hardAlpha" operator="out"/>
<feColorMatrix type="matrix" values="0 0 0 0 0 0 0 0 0 0 0 0 0 0 0 0 0 0 0.15 0"/>
<feBlend mode="normal" in2="BackgroundImageFix" result="effect1_dropShadow_1242_113"/>
<feBlend mode="normal" in="SourceGraphic" in2="effect1_dropShadow_1242_113" result="shape"/>
</filter>
</defs>
</svg>
