<svg width="685" height="186" viewBox="0 0 685 186" fill="none" xmlns="http://www.w3.org/2000/svg">
<g filter="url(#filter0_d_1242_112)">
<rect width="551.916" height="76" transform="translate(132.082 55)" fill="#28A0CF"/>
<path d="M159.191 90.8125H153.723C152.817 90.8125 152.082 91.547 152.082 92.4531V108.859C152.082 109.765 152.817 110.5 153.723 110.5H159.191C160.098 110.5 160.832 109.765 160.832 108.859V92.4531C160.832 91.547 160.098 90.8125 159.191 90.8125ZM156.457 107.766C155.551 107.766 154.816 107.031 154.816 106.125C154.816 105.219 155.551 104.484 156.457 104.484C157.363 104.484 158.098 105.219 158.098 106.125C158.098 107.031 157.363 107.766 156.457 107.766ZM178.332 81.068C178.332 83.9675 176.557 85.5939 176.057 87.5312H183.011C185.294 87.5312 187.071 89.4279 187.082 91.5028C187.088 92.729 186.566 94.0491 185.753 94.8659L185.746 94.8734C186.418 96.4687 186.309 98.704 185.109 100.306C185.703 102.076 185.105 104.25 183.989 105.416C184.283 106.619 184.143 107.643 183.569 108.467C182.174 110.472 178.716 110.5 175.792 110.5L175.597 110.5C172.296 110.499 169.595 109.297 167.424 108.331C166.333 107.846 164.907 107.245 163.825 107.225C163.378 107.217 163.02 106.852 163.02 106.405V91.792C163.02 91.5732 163.107 91.3633 163.263 91.2095C165.971 88.5336 167.135 85.7006 169.355 83.4773C170.367 82.4634 170.735 80.9318 171.091 79.4508C171.395 78.186 172.03 75.5 173.41 75.5C175.051 75.5 178.332 76.0469 178.332 81.068Z" fill="white"/>
<path d="M218.194 101L212.098 93.536V101H208.738V84.248H212.098V91.76L218.194 84.248H222.25L215.338 92.552L222.442 101H218.194ZM237.012 94.064C237.012 94.544 236.98 94.976 236.916 95.36H227.196C227.276 96.32 227.612 97.072 228.204 97.616C228.796 98.16 229.524 98.432 230.388 98.432C231.636 98.432 232.524 97.896 233.052 96.824H236.676C236.292 98.104 235.556 99.16 234.468 99.992C233.38 100.808 232.044 101.216 230.46 101.216C229.18 101.216 228.028 100.936 227.004 100.376C225.996 99.8 225.204 98.992 224.628 97.952C224.068 96.912 223.788 95.712 223.788 94.352C223.788 92.976 224.068 91.768 224.628 90.728C225.188 89.688 225.972 88.888 226.98 88.328C227.988 87.768 229.148 87.488 230.46 87.488C231.724 87.488 232.852 87.76 233.844 88.304C234.852 88.848 235.628 89.624 236.172 90.632C236.732 91.624 237.012 92.768 237.012 94.064ZM233.532 93.104C233.516 92.24 233.204 91.552 232.596 91.04C231.988 90.512 231.244 90.248 230.364 90.248C229.532 90.248 228.828 90.504 228.252 91.016C227.692 91.512 227.348 92.208 227.22 93.104H233.532ZM252.185 87.704L243.953 107.288H240.377L243.257 100.664L237.929 87.704H241.697L245.129 96.992L248.609 87.704H252.185ZM269.219 92.408C270.163 92.584 270.939 93.056 271.547 93.824C272.155 94.592 272.459 95.472 272.459 96.464C272.459 97.36 272.235 98.152 271.787 98.84C271.355 99.512 270.723 100.04 269.891 100.424C269.059 100.808 268.075 101 266.939 101H259.715V84.248H266.627C267.763 84.248 268.739 84.432 269.555 84.8C270.387 85.168 271.011 85.68 271.427 86.336C271.859 86.992 272.075 87.736 272.075 88.568C272.075 89.544 271.811 90.36 271.283 91.016C270.771 91.672 270.083 92.136 269.219 92.408ZM263.075 91.16H266.147C266.947 91.16 267.563 90.984 267.995 90.632C268.427 90.264 268.643 89.744 268.643 89.072C268.643 88.4 268.427 87.88 267.995 87.512C267.563 87.144 266.947 86.96 266.147 86.96H263.075V91.16ZM266.459 98.264C267.275 98.264 267.907 98.072 268.355 97.688C268.819 97.304 269.051 96.76 269.051 96.056C269.051 95.336 268.811 94.776 268.331 94.376C267.851 93.96 267.203 93.752 266.387 93.752H263.075V98.264H266.459ZM287.496 94.064C287.496 94.544 287.464 94.976 287.4 95.36H277.68C277.76 96.32 278.096 97.072 278.688 97.616C279.28 98.16 280.008 98.432 280.872 98.432C282.12 98.432 283.008 97.896 283.536 96.824H287.16C286.776 98.104 286.04 99.16 284.952 99.992C283.864 100.808 282.528 101.216 280.944 101.216C279.664 101.216 278.512 100.936 277.488 100.376C276.48 99.8 275.688 98.992 275.112 97.952C274.552 96.912 274.272 95.712 274.272 94.352C274.272 92.976 274.552 91.768 275.112 90.728C275.672 89.688 276.456 88.888 277.464 88.328C278.472 87.768 279.632 87.488 280.944 87.488C282.208 87.488 283.336 87.76 284.328 88.304C285.336 88.848 286.112 89.624 286.656 90.632C287.216 91.624 287.496 92.768 287.496 94.064ZM284.016 93.104C284 92.24 283.688 91.552 283.08 91.04C282.472 90.512 281.728 90.248 280.848 90.248C280.016 90.248 279.312 90.504 278.736 91.016C278.176 91.512 277.832 92.208 277.704 93.104H284.016ZM297.317 87.512C298.901 87.512 300.181 88.016 301.157 89.024C302.133 90.016 302.621 91.408 302.621 93.2V101H299.261V93.656C299.261 92.6 298.997 91.792 298.469 91.232C297.941 90.656 297.221 90.368 296.309 90.368C295.381 90.368 294.645 90.656 294.101 91.232C293.573 91.792 293.309 92.6 293.309 93.656V101H289.949V87.704H293.309V89.36C293.757 88.784 294.325 88.336 295.013 88.016C295.717 87.68 296.485 87.512 297.317 87.512ZM318.176 94.064C318.176 94.544 318.144 94.976 318.08 95.36H308.36C308.44 96.32 308.776 97.072 309.368 97.616C309.96 98.16 310.688 98.432 311.552 98.432C312.8 98.432 313.688 97.896 314.216 96.824H317.84C317.456 98.104 316.72 99.16 315.632 99.992C314.544 100.808 313.208 101.216 311.624 101.216C310.344 101.216 309.192 100.936 308.168 100.376C307.16 99.8 306.368 98.992 305.792 97.952C305.232 96.912 304.952 95.712 304.952 94.352C304.952 92.976 305.232 91.768 305.792 90.728C306.352 89.688 307.136 88.888 308.144 88.328C309.152 87.768 310.312 87.488 311.624 87.488C312.888 87.488 314.016 87.76 315.008 88.304C316.016 88.848 316.792 89.624 317.336 90.632C317.896 91.624 318.176 92.768 318.176 94.064ZM314.696 93.104C314.68 92.24 314.368 91.552 313.76 91.04C313.152 90.512 312.408 90.248 311.528 90.248C310.696 90.248 309.992 90.504 309.416 91.016C308.856 91.512 308.512 92.208 308.384 93.104H314.696ZM326.725 90.464H324.397V101H320.989V90.464H319.477V87.704H320.989V87.032C320.989 85.4 321.453 84.2 322.381 83.432C323.309 82.664 324.709 82.304 326.581 82.352V85.184C325.765 85.168 325.197 85.304 324.877 85.592C324.557 85.88 324.397 86.4 324.397 87.152V87.704H326.725V90.464ZM330.606 86.12C330.014 86.12 329.518 85.936 329.118 85.568C328.734 85.184 328.542 84.712 328.542 84.152C328.542 83.592 328.734 83.128 329.118 82.76C329.518 82.376 330.014 82.184 330.606 82.184C331.198 82.184 331.686 82.376 332.07 82.76C332.47 83.128 332.67 83.592 332.67 84.152C332.67 84.712 332.47 85.184 332.07 85.568C331.686 85.936 331.198 86.12 330.606 86.12ZM332.262 87.704V101H328.902V87.704H332.262ZM339.494 90.464V96.896C339.494 97.344 339.598 97.672 339.806 97.88C340.03 98.072 340.398 98.168 340.91 98.168H342.47V101H340.358C337.526 101 336.11 99.624 336.11 96.872V90.464H334.526V87.704H336.11V84.416H339.494V87.704H342.47V90.464H339.494ZM349.974 101.216C348.886 101.216 347.91 101.024 347.046 100.64C346.182 100.24 345.494 99.704 344.982 99.032C344.486 98.36 344.214 97.616 344.166 96.8H347.55C347.614 97.312 347.862 97.736 348.294 98.072C348.742 98.408 349.294 98.576 349.95 98.576C350.59 98.576 351.086 98.448 351.438 98.192C351.806 97.936 351.99 97.608 351.99 97.208C351.99 96.776 351.766 96.456 351.318 96.248C350.886 96.024 350.19 95.784 349.23 95.528C348.238 95.288 347.422 95.04 346.782 94.784C346.158 94.528 345.614 94.136 345.15 93.608C344.702 93.08 344.478 92.368 344.478 91.472C344.478 90.736 344.686 90.064 345.102 89.456C345.534 88.848 346.142 88.368 346.926 88.016C347.726 87.664 348.662 87.488 349.734 87.488C351.318 87.488 352.582 87.888 353.526 88.688C354.47 89.472 354.99 90.536 355.086 91.88H351.87C351.822 91.352 351.598 90.936 351.198 90.632C350.814 90.312 350.294 90.152 349.638 90.152C349.03 90.152 348.558 90.264 348.222 90.488C347.902 90.712 347.742 91.024 347.742 91.424C347.742 91.872 347.966 92.216 348.414 92.456C348.862 92.68 349.558 92.912 350.502 93.152C351.462 93.392 352.254 93.64 352.878 93.896C353.502 94.152 354.038 94.552 354.486 95.096C354.95 95.624 355.19 96.328 355.206 97.208C355.206 97.976 354.99 98.664 354.558 99.272C354.142 99.88 353.534 100.36 352.734 100.712C351.95 101.048 351.03 101.216 349.974 101.216ZM369.587 101.216C368.307 101.216 367.155 100.936 366.131 100.376C365.107 99.8 364.299 98.992 363.707 97.952C363.131 96.912 362.843 95.712 362.843 94.352C362.843 92.992 363.139 91.792 363.731 90.752C364.339 89.712 365.163 88.912 366.203 88.352C367.243 87.776 368.403 87.488 369.683 87.488C370.963 87.488 372.123 87.776 373.163 88.352C374.203 88.912 375.019 89.712 375.611 90.752C376.219 91.792 376.523 92.992 376.523 94.352C376.523 95.712 376.211 96.912 375.587 97.952C374.979 98.992 374.147 99.8 373.091 100.376C372.051 100.936 370.883 101.216 369.587 101.216ZM369.587 98.288C370.195 98.288 370.763 98.144 371.291 97.856C371.835 97.552 372.267 97.104 372.587 96.512C372.907 95.92 373.067 95.2 373.067 94.352C373.067 93.088 372.731 92.12 372.059 91.448C371.403 90.76 370.595 90.416 369.635 90.416C368.675 90.416 367.867 90.76 367.211 91.448C366.571 92.12 366.251 93.088 366.251 94.352C366.251 95.616 366.563 96.592 367.187 97.28C367.827 97.952 368.627 98.288 369.587 98.288ZM385.084 90.464H382.756V101H379.348V90.464H377.836V87.704H379.348V87.032C379.348 85.4 379.812 84.2 380.74 83.432C381.668 82.664 383.068 82.304 384.94 82.352V85.184C384.124 85.168 383.556 85.304 383.236 85.592C382.916 85.88 382.756 86.4 382.756 87.152V87.704H385.084V90.464ZM403.324 84.248V86.96H396.34V91.256H401.692V93.92H396.34V101H392.98V84.248H403.324ZM409.067 84.248V101H405.707V84.248H409.067ZM418.17 101.168C417.002 101.168 415.946 100.968 415.002 100.568C414.074 100.168 413.338 99.592 412.794 98.84C412.25 98.088 411.97 97.2 411.954 96.176H415.554C415.602 96.864 415.842 97.408 416.274 97.808C416.722 98.208 417.33 98.408 418.098 98.408C418.882 98.408 419.498 98.224 419.946 97.856C420.394 97.472 420.618 96.976 420.618 96.368C420.618 95.872 420.466 95.464 420.162 95.144C419.858 94.824 419.474 94.576 419.01 94.4C418.562 94.208 417.938 94 417.138 93.776C416.05 93.456 415.162 93.144 414.474 92.84C413.802 92.52 413.218 92.048 412.722 91.424C412.242 90.784 412.002 89.936 412.002 88.88C412.002 87.888 412.25 87.024 412.746 86.288C413.242 85.552 413.938 84.992 414.834 84.608C415.73 84.208 416.754 84.008 417.906 84.008C419.634 84.008 421.034 84.432 422.106 85.28C423.194 86.112 423.794 87.28 423.906 88.784H420.21C420.178 88.208 419.93 87.736 419.466 87.368C419.018 86.984 418.418 86.792 417.666 86.792C417.01 86.792 416.482 86.96 416.082 87.296C415.698 87.632 415.506 88.12 415.506 88.76C415.506 89.208 415.65 89.584 415.938 89.888C416.242 90.176 416.61 90.416 417.042 90.608C417.49 90.784 418.114 90.992 418.914 91.232C420.002 91.552 420.89 91.872 421.578 92.192C422.266 92.512 422.858 92.992 423.354 93.632C423.85 94.272 424.098 95.112 424.098 96.152C424.098 97.048 423.866 97.88 423.402 98.648C422.938 99.416 422.258 100.032 421.362 100.496C420.466 100.944 419.402 101.168 418.17 101.168ZM445.275 84.248V101H441.915V90.104L437.427 101H434.883L430.371 90.104V101H427.011V84.248H430.827L436.155 96.704L441.483 84.248H445.275ZM458.869 97.808H452.197L451.093 101H447.565L453.589 84.224H457.501L463.525 101H459.973L458.869 97.808ZM457.957 95.12L455.533 88.112L453.109 95.12H457.957ZM470.68 92.6C470.68 90.952 471.048 89.48 471.784 88.184C472.536 86.872 473.552 85.856 474.832 85.136C476.128 84.4 477.576 84.032 479.176 84.032C481.048 84.032 482.688 84.512 484.096 85.472C485.504 86.432 486.488 87.76 487.048 89.456H483.184C482.8 88.656 482.256 88.056 481.552 87.656C480.864 87.256 480.064 87.056 479.152 87.056C478.176 87.056 477.304 87.288 476.536 87.752C475.784 88.2 475.192 88.84 474.76 89.672C474.344 90.504 474.136 91.48 474.136 92.6C474.136 93.704 474.344 94.68 474.76 95.528C475.192 96.36 475.784 97.008 476.536 97.472C477.304 97.92 478.176 98.144 479.152 98.144C480.064 98.144 480.864 97.944 481.552 97.544C482.256 97.128 482.8 96.52 483.184 95.72H487.048C486.488 97.432 485.504 98.768 484.096 99.728C482.704 100.672 481.064 101.144 479.176 101.144C477.576 101.144 476.128 100.784 474.832 100.064C473.552 99.328 472.536 98.312 471.784 97.016C471.048 95.72 470.68 94.248 470.68 92.6ZM495.822 101.216C494.542 101.216 493.39 100.936 492.366 100.376C491.342 99.8 490.534 98.992 489.942 97.952C489.366 96.912 489.078 95.712 489.078 94.352C489.078 92.992 489.374 91.792 489.966 90.752C490.574 89.712 491.398 88.912 492.438 88.352C493.478 87.776 494.638 87.488 495.918 87.488C497.198 87.488 498.358 87.776 499.398 88.352C500.438 88.912 501.254 89.712 501.846 90.752C502.454 91.792 502.758 92.992 502.758 94.352C502.758 95.712 502.446 96.912 501.822 97.952C501.214 98.992 500.382 99.8 499.326 100.376C498.286 100.936 497.118 101.216 495.822 101.216ZM495.822 98.288C496.43 98.288 496.998 98.144 497.526 97.856C498.07 97.552 498.502 97.104 498.822 96.512C499.142 95.92 499.302 95.2 499.302 94.352C499.302 93.088 498.966 92.12 498.294 91.448C497.638 90.76 496.83 90.416 495.87 90.416C494.91 90.416 494.102 90.76 493.446 91.448C492.806 92.12 492.486 93.088 492.486 94.352C492.486 95.616 492.798 96.592 493.422 97.28C494.062 97.952 494.862 98.288 495.822 98.288ZM521.734 87.512C523.366 87.512 524.678 88.016 525.67 89.024C526.678 90.016 527.182 91.408 527.182 93.2V101H523.822V93.656C523.822 92.616 523.558 91.824 523.03 91.28C522.502 90.72 521.782 90.44 520.87 90.44C519.958 90.44 519.23 90.72 518.686 91.28C518.158 91.824 517.894 92.616 517.894 93.656V101H514.534V93.656C514.534 92.616 514.27 91.824 513.742 91.28C513.214 90.72 512.494 90.44 511.582 90.44C510.654 90.44 509.918 90.72 509.374 91.28C508.846 91.824 508.582 92.616 508.582 93.656V101H505.222V87.704H508.582V89.312C509.014 88.752 509.566 88.312 510.238 87.992C510.926 87.672 511.678 87.512 512.494 87.512C513.534 87.512 514.462 87.736 515.278 88.184C516.094 88.616 516.726 89.24 517.174 90.056C517.606 89.288 518.23 88.672 519.046 88.208C519.878 87.744 520.774 87.512 521.734 87.512ZM533.731 89.624C534.163 89.016 534.755 88.512 535.507 88.112C536.275 87.696 537.147 87.488 538.123 87.488C539.259 87.488 540.283 87.768 541.195 88.328C542.123 88.888 542.851 89.688 543.379 90.728C543.923 91.752 544.195 92.944 544.195 94.304C544.195 95.664 543.923 96.872 543.379 97.928C542.851 98.968 542.123 99.776 541.195 100.352C540.283 100.928 539.259 101.216 538.123 101.216C537.147 101.216 536.283 101.016 535.531 100.616C534.795 100.216 534.195 99.712 533.731 99.104V107.336H530.371V87.704H533.731V89.624ZM540.763 94.304C540.763 93.504 540.595 92.816 540.259 92.24C539.939 91.648 539.507 91.2 538.963 90.896C538.435 90.592 537.859 90.44 537.235 90.44C536.627 90.44 536.051 90.6 535.507 90.92C534.979 91.224 534.547 91.672 534.211 92.264C533.891 92.856 533.731 93.552 533.731 94.352C533.731 95.152 533.891 95.848 534.211 96.44C534.547 97.032 534.979 97.488 535.507 97.808C536.051 98.112 536.627 98.264 537.235 98.264C537.859 98.264 538.435 98.104 538.963 97.784C539.507 97.464 539.939 97.008 540.259 96.416C540.595 95.824 540.763 95.12 540.763 94.304ZM549.996 83.24V101H546.636V83.24H549.996ZM555.02 86.12C554.428 86.12 553.932 85.936 553.532 85.568C553.148 85.184 552.956 84.712 552.956 84.152C552.956 83.592 553.148 83.128 553.532 82.76C553.932 82.376 554.428 82.184 555.02 82.184C555.612 82.184 556.1 82.376 556.484 82.76C556.884 83.128 557.084 83.592 557.084 84.152C557.084 84.712 556.884 85.184 556.484 85.568C556.1 85.936 555.612 86.12 555.02 86.12ZM556.676 87.704V101H553.316V87.704H556.676ZM559.132 94.304C559.132 92.96 559.396 91.768 559.924 90.728C560.468 89.688 561.196 88.888 562.108 88.328C563.036 87.768 564.068 87.488 565.204 87.488C566.196 87.488 567.06 87.688 567.796 88.088C568.548 88.488 569.148 88.992 569.596 89.6V87.704H572.98V101H569.596V99.056C569.164 99.68 568.564 100.2 567.796 100.616C567.044 101.016 566.172 101.216 565.18 101.216C564.06 101.216 563.036 100.928 562.108 100.352C561.196 99.776 560.468 98.968 559.924 97.928C559.396 96.872 559.132 95.664 559.132 94.304ZM569.596 94.352C569.596 93.536 569.436 92.84 569.116 92.264C568.796 91.672 568.364 91.224 567.82 90.92C567.276 90.6 566.692 90.44 566.068 90.44C565.444 90.44 564.868 90.592 564.34 90.896C563.812 91.2 563.38 91.648 563.044 92.24C562.724 92.816 562.564 93.504 562.564 94.304C562.564 95.104 562.724 95.808 563.044 96.416C563.38 97.008 563.812 97.464 564.34 97.784C564.884 98.104 565.46 98.264 566.068 98.264C566.692 98.264 567.276 98.112 567.82 97.808C568.364 97.488 568.796 97.04 569.116 96.464C569.436 95.872 569.596 95.168 569.596 94.352ZM583.629 87.512C585.213 87.512 586.493 88.016 587.469 89.024C588.445 90.016 588.933 91.408 588.933 93.2V101H585.573V93.656C585.573 92.6 585.309 91.792 584.781 91.232C584.253 90.656 583.533 90.368 582.621 90.368C581.693 90.368 580.957 90.656 580.413 91.232C579.885 91.792 579.621 92.6 579.621 93.656V101H576.261V87.704H579.621V89.36C580.069 88.784 580.637 88.336 581.325 88.016C582.029 87.68 582.797 87.512 583.629 87.512ZM591.265 94.352C591.265 92.976 591.545 91.776 592.105 90.752C592.665 89.712 593.441 88.912 594.433 88.352C595.425 87.776 596.561 87.488 597.841 87.488C599.489 87.488 600.849 87.904 601.921 88.736C603.009 89.552 603.737 90.704 604.105 92.192H600.481C600.289 91.616 599.961 91.168 599.497 90.848C599.049 90.512 598.489 90.344 597.817 90.344C596.857 90.344 596.097 90.696 595.537 91.4C594.977 92.088 594.697 93.072 594.697 94.352C594.697 95.616 594.977 96.6 595.537 97.304C596.097 97.992 596.857 98.336 597.817 98.336C599.177 98.336 600.065 97.728 600.481 96.512H604.105C603.737 97.952 603.009 99.096 601.921 99.944C600.833 100.792 599.473 101.216 597.841 101.216C596.561 101.216 595.425 100.936 594.433 100.376C593.441 99.8 592.665 99 592.105 97.976C591.545 96.936 591.265 95.728 591.265 94.352ZM618.926 94.064C618.926 94.544 618.894 94.976 618.83 95.36H609.11C609.19 96.32 609.526 97.072 610.118 97.616C610.71 98.16 611.438 98.432 612.302 98.432C613.55 98.432 614.438 97.896 614.966 96.824H618.59C618.206 98.104 617.47 99.16 616.382 99.992C615.294 100.808 613.958 101.216 612.374 101.216C611.094 101.216 609.942 100.936 608.918 100.376C607.91 99.8 607.118 98.992 606.542 97.952C605.982 96.912 605.702 95.712 605.702 94.352C605.702 92.976 605.982 91.768 606.542 90.728C607.102 89.688 607.886 88.888 608.894 88.328C609.902 87.768 611.062 87.488 612.374 87.488C613.638 87.488 614.766 87.76 615.758 88.304C616.766 88.848 617.542 89.624 618.086 90.632C618.646 91.624 618.926 92.768 618.926 94.064ZM615.446 93.104C615.43 92.24 615.118 91.552 614.51 91.04C613.902 90.512 613.158 90.248 612.278 90.248C611.446 90.248 610.742 90.504 610.166 91.016C609.606 91.512 609.262 92.208 609.134 93.104H615.446ZM622.867 101.168C622.259 101.168 621.755 100.984 621.355 100.616C620.971 100.232 620.779 99.76 620.779 99.2C620.779 98.64 620.971 98.176 621.355 97.808C621.755 97.424 622.259 97.232 622.867 97.232C623.459 97.232 623.947 97.424 624.331 97.808C624.715 98.176 624.907 98.64 624.907 99.2C624.907 99.76 624.715 100.232 624.331 100.616C623.947 100.984 623.459 101.168 622.867 101.168ZM622.867 91.232C622.259 91.232 621.755 91.048 621.355 90.68C620.971 90.296 620.779 89.824 620.779 89.264C620.779 88.704 620.971 88.24 621.355 87.872C621.755 87.488 622.259 87.296 622.867 87.296C623.459 87.296 623.947 87.488 624.331 87.872C624.715 88.24 624.907 88.704 624.907 89.264C624.907 89.824 624.715 90.296 624.331 90.68C623.947 91.048 623.459 91.232 622.867 91.232Z" fill="white"/>
<path d="M599.726 7L684 55H599.424L599.726 7Z" fill="#016187"/>
<path d="M41 93L132.896 35.8423V150.158L41 93Z" fill="#28A0CF"/>
</g>
<defs>
<filter id="filter0_d_1242_112" x="0" y="0" width="685" height="185.158" filterUnits="userSpaceOnUse" color-interpolation-filters="sRGB">
<feFlood flood-opacity="0" result="BackgroundImageFix"/>
<feColorMatrix in="SourceAlpha" type="matrix" values="0 0 0 0 0 0 0 0 0 0 0 0 0 0 0 0 0 0 127 0" result="hardAlpha"/>
<feOffset dx="-20" dy="14"/>
<feGaussianBlur stdDeviation="10.5"/>
<feComposite in2="hardAlpha" operator="out"/>
<feColorMatrix type="matrix" values="0 0 0 0 0 0 0 0 0 0 0 0 0 0 0 0 0 0 0.15 0"/>
<feBlend mode="normal" in2="BackgroundImageFix" result="effect1_dropShadow_1242_112"/>
<feBlend mode="normal" in="SourceGraphic" in2="effect1_dropShadow_1242_112" result="shape"/>
</filter>
</defs>
</svg>
