<svg width="44" height="45" viewBox="0 0 44 45" fill="none" xmlns="http://www.w3.org/2000/svg">
<path d="M31.9793 28.1314C35.8944 33.055 37.6972 37.0899 36.787 38.8943C36.0888 40.2635 31.7761 42.9384 28.6034 43.963C25.9875 44.8063 22.5585 45.169 19.7305 44.8879C16.3545 44.5524 12.9344 43.3102 10.0003 41.3516C7.53461 39.7013 6.97784 39.0213 6.97784 37.6702C6.97784 34.9591 9.88541 30.2078 14.861 24.7855C17.689 21.7117 21.6217 18.1029 22.0547 18.2026C22.8855 18.393 29.5048 25.0122 31.9793 28.1314ZM15.9568 12.3179C13.3321 9.87878 10.8222 7.43059 8.32115 6.56919C6.97784 6.10675 6.88063 6.13396 5.78477 7.30365C3.2042 10.0601 1.05667 14.5303 0.455715 18.4021C-0.0215135 21.5031 -0.0833765 22.3736 0.0845374 23.8879C0.579441 28.4669 1.61344 31.6314 3.66375 34.8503C4.50332 36.1741 4.7331 36.419 4.48565 35.748C4.11447 34.7506 4.45914 32.3477 5.32522 29.9449C6.58899 26.4086 10.0887 19.7078 15.9568 12.3179ZM43.4947 18.0757C42.0011 10.8218 37.5293 6.2609 36.9019 6.2609C36.2567 6.2609 34.7632 6.85028 33.7203 7.52126C31.6612 8.83603 30.0969 10.3684 28.0378 12.3088C31.7849 17.1417 37.0698 24.9487 38.8992 30.6521C39.5001 32.5291 39.7564 34.3788 39.5531 35.3943C39.4029 36.1651 39.4029 36.1651 39.6769 35.8114C40.216 35.1133 41.4355 32.9734 41.9216 31.8671C42.5756 30.3982 43.2472 28.2221 43.5654 26.5446C43.9454 24.5044 43.9101 20.1249 43.4947 18.0757ZM11.7766 3.178C15.9922 2.95131 21.4715 6.30624 21.878 6.38784C21.9399 6.39691 22.7971 6.00701 23.7869 5.50831C29.4341 2.68836 32.0942 3.16893 33.2785 3.22333C27.6313 -0.340141 19.7835 -1.31035 12.6074 2.16245C10.5394 3.16893 10.4864 3.24147 11.7766 3.178Z" fill="#28A0CF"/>
</svg>
