<svg width="238" height="176" viewBox="0 0 238 176" fill="none" xmlns="http://www.w3.org/2000/svg">
<g filter="url(#filter0_d_1252_102)">
<path d="M186 0L178 24H228L186 0Z" fill="#0B7CA8"/>
<path d="M186 0H0L19.4764 166L135.361 150.115L186 0Z" fill="#28A0CF"/>
<path d="M71.75 88.5108C74.3212 88.5108 76.8346 87.7401 78.9724 86.296C81.1103 84.852 82.7765 82.7995 83.7604 80.3981C84.7444 77.9967 85.0018 75.3543 84.5002 72.8051C83.9986 70.2558 82.7605 67.9141 80.9424 66.0762C79.1243 64.2383 76.8079 62.9866 74.2862 62.4796C71.7644 61.9725 69.1506 62.2327 66.7751 63.2274C64.3997 64.2221 62.3694 65.9065 60.9409 68.0677C59.5124 70.2289 58.75 72.7697 58.75 75.3689C58.75 78.8544 60.1196 82.1971 62.5576 84.6616C64.9956 87.1262 68.3022 88.5108 71.75 88.5108ZM81.5 95.0818C81.5073 93.9843 81.7904 92.9068 82.3227 91.9503C81.8352 91.899 81.3578 91.7963 80.85 91.7963H79.1539C76.8324 92.8785 74.3064 93.439 71.75 93.439C69.1936 93.439 66.6676 92.8785 64.3461 91.7963H62.65C59.03 91.7971 55.5586 93.2512 52.9989 95.8388C50.4392 98.4264 49.0008 101.936 49 105.595V109.866C49 111.173 49.5136 112.427 50.4279 113.351C51.3421 114.275 52.5821 114.795 53.875 114.795H82.4039C81.8198 113.8 81.5078 112.666 81.5 111.509V95.0818ZM110.75 91.7963H107.5V83.5826C107.5 81.4042 106.644 79.315 105.12 77.7747C103.597 76.2343 101.53 75.3689 99.375 75.3689C97.2201 75.3689 95.1535 76.2343 93.6298 77.7747C92.106 79.315 91.25 81.4042 91.25 83.5826V91.7963H88C87.138 91.7963 86.3114 92.1424 85.7019 92.7586C85.0924 93.3747 84.75 94.2104 84.75 95.0818V111.509C84.75 112.38 85.0924 113.216 85.7019 113.832C86.3114 114.448 87.138 114.795 88 114.795H110.75C111.612 114.795 112.439 114.448 113.048 113.832C113.658 113.216 114 112.38 114 111.509V95.0818C114 94.2104 113.658 93.3747 113.048 92.7586C112.439 92.1424 111.612 91.7963 110.75 91.7963ZM99.375 106.581C98.7322 106.581 98.1039 106.388 97.5694 106.027C97.0349 105.666 96.6184 105.153 96.3724 104.553C96.1264 103.952 96.062 103.292 96.1874 102.654C96.3129 102.017 96.6224 101.432 97.0769 100.972C97.5314 100.513 98.1105 100.2 98.741 100.073C99.3714 99.9463 100.025 100.011 100.619 100.26C101.213 100.509 101.72 100.93 102.077 101.47C102.434 102.01 102.625 102.646 102.625 103.295C102.625 104.167 102.283 105.002 101.673 105.619C101.064 106.235 100.237 106.581 99.375 106.581ZM102.625 91.7963H96.125V83.5826C96.125 82.7112 96.4674 81.8756 97.0769 81.2594C97.6864 80.6433 98.513 80.2971 99.375 80.2971C100.237 80.2971 101.064 80.6433 101.673 81.2594C102.283 81.8756 102.625 82.7112 102.625 83.5826V91.7963Z" fill="white"/>
</g>
<defs>
<filter id="filter0_d_1252_102" x="0" y="0" width="238" height="176" filterUnits="userSpaceOnUse" color-interpolation-filters="sRGB">
<feFlood flood-opacity="0" result="BackgroundImageFix"/>
<feColorMatrix in="SourceAlpha" type="matrix" values="0 0 0 0 0 0 0 0 0 0 0 0 0 0 0 0 0 0 127 0" result="hardAlpha"/>
<feOffset dx="6" dy="6"/>
<feGaussianBlur stdDeviation="2"/>
<feComposite in2="hardAlpha" operator="out"/>
<feColorMatrix type="matrix" values="0 0 0 0 0 0 0 0 0 0 0 0 0 0 0 0 0 0 0.15 0"/>
<feBlend mode="normal" in2="BackgroundImageFix" result="effect1_dropShadow_1252_102"/>
<feBlend mode="normal" in="SourceGraphic" in2="effect1_dropShadow_1252_102" result="shape"/>
</filter>
</defs>
</svg>
