<svg width="238" height="176" viewBox="0 0 238 176" fill="none" xmlns="http://www.w3.org/2000/svg">
<g filter="url(#filter0_d_1634_14)">
<path d="M52 0L60 24H10L52 0Z" fill="#41038F"/>
<path d="M52 0H238L218.524 166L102.639 150.115L52 0Z" fill="#7128CF"/>
</g>
<path d="M142.759 96.0377L157.215 80.841L152.476 75.8583L145.85 82.8242C145.771 82.9074 145.677 82.9735 145.574 83.0185C145.471 83.0636 145.36 83.0868 145.248 83.0868C145.136 83.0868 145.026 83.0636 144.922 83.0185C144.819 82.9735 144.725 82.9074 144.646 82.8242L143.442 81.5582C143.109 81.2081 143.109 80.6411 143.442 80.2922L150.068 73.3263L146.454 69.526C145.123 68.1267 142.966 68.1267 141.635 69.526L131.998 79.6575C130.669 81.0567 130.668 83.3245 131.998 84.7238L142.759 96.0377ZM184.488 82.8468C186.504 80.7281 186.502 77.2937 184.488 75.175L179.628 70.0647C177.612 67.946 174.345 67.946 172.328 70.0647L167.385 75.2609L179.545 88.0452L184.488 82.8468ZM164.954 77.8177L133.05 111.355L131.035 123.489C130.763 125.125 132.119 126.551 133.676 126.263L145.219 124.135L177.114 90.601L164.954 77.8177ZM185.002 110.053L181.388 106.254L174.762 113.22C174.429 113.57 173.89 113.57 173.558 113.22L172.354 111.954C172.022 111.604 172.022 111.037 172.354 110.688L178.98 103.722L174.238 98.7369L159.782 113.934L170.546 125.25C171.877 126.649 174.034 126.649 175.365 125.25L185.002 115.119C186.333 113.72 186.333 111.452 185.002 110.053Z" fill="white"/>
<defs>
<filter id="filter0_d_1634_14" x="0" y="0" width="238" height="176" filterUnits="userSpaceOnUse" color-interpolation-filters="sRGB">
<feFlood flood-opacity="0" result="BackgroundImageFix"/>
<feColorMatrix in="SourceAlpha" type="matrix" values="0 0 0 0 0 0 0 0 0 0 0 0 0 0 0 0 0 0 127 0" result="hardAlpha"/>
<feOffset dx="-6" dy="6"/>
<feGaussianBlur stdDeviation="2"/>
<feComposite in2="hardAlpha" operator="out"/>
<feColorMatrix type="matrix" values="0 0 0 0 0 0 0 0 0 0 0 0 0 0 0 0 0 0 0.15 0"/>
<feBlend mode="normal" in2="BackgroundImageFix" result="effect1_dropShadow_1634_14"/>
<feBlend mode="normal" in="SourceGraphic" in2="effect1_dropShadow_1634_14" result="shape"/>
</filter>
</defs>
</svg>
