<svg width="238" height="176" viewBox="0 0 238 176" fill="none" xmlns="http://www.w3.org/2000/svg">
<g filter="url(#filter0_d_1252_108)">
<path d="M186 0L178 24H228L186 0Z" fill="#026A32"/>
<path d="M186 0H0L19.4764 166L135.361 150.115L186 0Z" fill="#039A49"/>
<path d="M120.091 83.8135C120.436 81.9105 120.436 79.9669 120.091 78.0638L123.518 76.0528C123.916 75.8233 124.089 75.351 123.956 74.9056C123.066 71.9902 121.538 69.3448 119.546 67.1583C119.24 66.8209 118.749 66.7399 118.351 66.9694L114.924 68.9804C113.476 67.7252 111.815 66.7534 110.022 66.1056V62.0835C110.022 61.6246 109.704 61.2197 109.265 61.1252C106.303 60.4504 103.288 60.4774 100.472 61.1252C100.034 61.2197 99.715 61.6246 99.715 62.0835V66.1056C97.9218 66.7534 96.2615 67.7252 94.8137 68.9804L91.3868 66.9694C91.0016 66.7399 90.4968 66.8209 90.1913 67.1583C88.1989 69.3448 86.6714 71.9902 85.7815 74.9056C85.6487 75.351 85.8346 75.8233 86.2198 76.0528L89.6467 78.0638C89.3014 79.9669 89.3014 81.9105 89.6467 83.8135L86.2198 85.8246C85.8213 86.054 85.6487 86.5264 85.7815 86.9718C86.6714 89.8871 88.1989 92.519 90.1913 94.719C90.4968 95.0565 90.9883 95.1374 91.3868 94.908L94.8137 92.897C96.2615 94.1522 97.9218 95.1239 99.715 95.7718V99.7939C99.715 100.253 100.034 100.658 100.472 100.752C103.434 101.427 106.449 101.4 109.265 100.752C109.704 100.658 110.022 100.253 110.022 99.7939V95.7718C111.815 95.1239 113.476 94.1522 114.924 92.897L118.351 94.908C118.736 95.1374 119.24 95.0565 119.546 94.719C121.538 92.5325 123.066 89.8871 123.956 86.9718C124.089 86.5264 123.903 86.054 123.518 85.8246L120.091 83.8135ZM104.882 87.4847C101.322 87.4847 98.4399 84.5424 98.4399 80.9387C98.4399 77.335 101.335 74.3927 104.882 74.3927C108.428 74.3927 111.324 77.335 111.324 80.9387C111.324 84.5424 108.442 87.4847 104.882 87.4847ZM51.7513 67.9816C56.4401 67.9816 60.2522 64.108 60.2522 59.3436C60.2522 54.5792 56.4401 50.7056 51.7513 50.7056C47.0626 50.7056 43.2504 54.5792 43.2504 59.3436C43.2504 64.108 47.0626 67.9816 51.7513 67.9816ZM81.5045 72.3007C81.7569 72.3007 81.9959 72.2332 82.2483 72.2197C83.3508 69.2908 84.9713 66.5375 87.0699 64.2295C88.0528 63.1497 89.4475 62.5289 90.9086 62.5289C91.8251 62.5289 92.7283 62.7718 93.512 63.2442L94.5613 63.8651C94.6676 63.7976 94.7739 63.7436 94.8801 63.6761C95.8099 61.7056 96.3678 59.5191 96.3678 57.1976C96.3678 48.843 89.7132 42.0811 81.4912 42.0811C73.2692 42.0811 66.6279 48.8295 66.6279 57.1841C66.6279 65.5387 73.2825 72.3007 81.5045 72.3007ZM95.4778 98.5522C95.1723 98.3902 94.8668 98.2012 94.5746 98.0258C93.4854 98.6736 92.5424 99.3485 90.9219 99.3485C89.4741 99.3485 88.0794 98.7276 87.0832 97.6479C84.6525 94.9755 82.7929 91.7227 81.7436 88.254C80.3223 83.5976 85.0509 81.546 85.1705 81.4651C85.1572 81.1141 85.1572 80.7632 85.1705 80.4123L84.1212 79.7914C83.6164 79.4945 83.1914 79.1166 82.8195 78.6982C82.3811 78.7252 81.9561 78.7792 81.5178 78.7792C78.2502 78.7792 75.1952 77.9694 72.4192 76.6197H71.3167C62.8556 76.6197 56.0018 83.5841 56.0018 92.1681V96.0552C56.0018 99.6319 58.8576 102.534 62.3775 102.534H96.3014C95.8099 101.724 95.4778 100.806 95.4778 99.7939V98.5522ZM61.9923 74.8111C60.4515 73.2589 58.3395 72.3007 56.0018 72.3007H47.5009C42.8121 72.3007 39 76.1743 39 80.9387V85.2577C39 87.6467 40.8994 89.5767 43.2504 89.5767H52.0037C52.8405 83.1792 56.6394 77.7939 61.9923 74.8111Z" fill="white"/>
</g>
<defs>
<filter id="filter0_d_1252_108" x="0" y="0" width="238" height="176" filterUnits="userSpaceOnUse" color-interpolation-filters="sRGB">
<feFlood flood-opacity="0" result="BackgroundImageFix"/>
<feColorMatrix in="SourceAlpha" type="matrix" values="0 0 0 0 0 0 0 0 0 0 0 0 0 0 0 0 0 0 127 0" result="hardAlpha"/>
<feOffset dx="6" dy="6"/>
<feGaussianBlur stdDeviation="2"/>
<feComposite in2="hardAlpha" operator="out"/>
<feColorMatrix type="matrix" values="0 0 0 0 0 0 0 0 0 0 0 0 0 0 0 0 0 0 0.15 0"/>
<feBlend mode="normal" in2="BackgroundImageFix" result="effect1_dropShadow_1252_108"/>
<feBlend mode="normal" in="SourceGraphic" in2="effect1_dropShadow_1252_108" result="shape"/>
</filter>
</defs>
</svg>
