<svg width="100" height="100" viewBox="0 0 100 100" fill="none" xmlns="http://www.w3.org/2000/svg">
<rect width="100" height="100" rx="50" transform="matrix(-1 0 0 1 100 0)" fill="#28A0CF"/>
<path d="M76.9062 34.125H52.5312L44.4062 26H24.0938C20.7282 26 18 28.7282 18 32.0938V68.6562C18 72.0218 20.7282 74.75 24.0938 74.75H76.9062C80.2718 74.75 83 72.0218 83 68.6562V40.2188C83 36.8532 80.2718 34.125 76.9062 34.125ZM64.7188 55.4531C64.7188 56.5754 63.8098 57.4844 62.6875 57.4844H53.5469V66.625C53.5469 67.7473 52.6379 68.6562 51.5156 68.6562H49.4844C48.3621 68.6562 47.4531 67.7473 47.4531 66.625V57.4844H38.3125C37.1902 57.4844 36.2812 56.5754 36.2812 55.4531V53.4219C36.2812 52.2996 37.1902 51.3906 38.3125 51.3906H47.4531V42.25C47.4531 41.1277 48.3621 40.2188 49.4844 40.2188H51.5156C52.6379 40.2188 53.5469 41.1277 53.5469 42.25V51.3906H62.6875C63.8098 51.3906 64.7188 52.2996 64.7188 53.4219V55.4531Z" fill="white"/>
</svg>
