<svg width="100" height="100" viewBox="0 0 100 100" fill="none" xmlns="http://www.w3.org/2000/svg">
<rect width="100" height="100" rx="50" fill="#28A0CF"/>
<path d="M77.315 31.9589L54.389 19.1521C51.6389 17.616 48.2397 17.616 45.4896 19.1521L22.565 31.9589C21.8302 32.369 21.8343 33.3897 22.5733 33.7947L49.94 48.7927L77.3081 33.7947C78.0471 33.3897 78.0512 32.3703 77.315 31.9589ZM79.2266 37.6248L52.15 52.4628V80.8771C52.15 82.5122 53.9995 83.5317 55.4719 82.709L76.489 70.9685C79.2073 69.4502 80.88 66.6598 80.88 63.6435V38.5452C80.88 37.7314 79.9629 37.2211 79.2266 37.6248ZM19 38.5452V63.6435C19 66.6611 20.6727 69.4502 23.391 70.9685L44.4081 82.7077C45.8819 83.5304 47.73 82.5122 47.73 80.8758V52.4628L20.6534 37.6248C19.9172 37.2211 19 37.7314 19 38.5452Z" fill="white"/>
</svg>
