<svg width="100" height="100" viewBox="0 0 100 100" fill="none" xmlns="http://www.w3.org/2000/svg">
<rect width="100" height="100" rx="50" fill="#28A0CF"/>
<path d="M50.5144 49.2254C48.8323 49.2254 47.4675 50.5889 47.4675 52.2723C47.6122 61.4446 46.4341 70.2869 43.9509 79.1292C43.6043 80.3632 44.2238 83 46.8861 83C48.2165 83 49.4391 82.1215 49.8174 80.7758C51.5351 74.6935 53.7581 64.8546 53.5601 52.2723C53.5613 50.5901 52.1978 49.2254 50.5144 49.2254ZM50.4052 38.8495C42.628 38.8406 37.2007 44.8252 37.3086 51.6832C37.4038 57.7693 36.8325 63.8593 35.6112 69.7804C35.2697 71.4282 36.3311 73.0418 37.9777 73.3808C39.6344 73.7197 41.2366 72.6622 41.5781 71.0144C42.8908 64.6553 43.504 58.1185 43.4024 51.588C43.3504 48.2936 45.9314 44.9242 50.3151 44.9433C54.2901 45.0029 57.5706 48.1603 57.6302 51.9853C57.728 58.0854 57.2735 64.2147 56.2832 70.2095C56.0077 71.8675 57.1326 73.4366 58.7919 73.7108C61.3271 74.1336 62.1955 71.7938 62.2933 71.201C63.3445 64.8495 63.8243 58.3521 63.7241 51.8901C63.6123 44.8061 57.6378 38.9561 50.4052 38.8495ZM36.3526 36.3384C35.045 35.2796 33.1318 35.4751 32.0666 36.7802C28.8141 40.7792 27.0659 45.8294 27.1472 50.9989C27.2221 55.7698 26.8336 60.5547 25.9906 65.224C25.6935 66.8808 26.7917 68.4651 28.4484 68.7647C31.0015 69.2091 31.8851 66.8846 31.9892 66.3069C32.902 61.2491 33.3222 56.0669 33.241 50.9037C33.1813 47.1103 34.409 43.5557 36.7957 40.6243C37.8558 39.3192 37.6577 37.401 36.3526 36.3384ZM50.2504 28.4254C48.294 28.3733 46.3313 28.6082 44.4384 29.0563C42.8019 29.4448 41.7888 31.0851 42.1748 32.724C42.5633 34.3604 44.206 35.3685 45.8425 34.9876C47.2453 34.6562 48.6952 34.509 50.159 34.5191C59.7351 34.6626 67.6444 42.3268 67.7904 51.6045C67.8653 56.4135 67.6279 61.2669 67.082 66.0302C66.8916 67.7021 68.0913 69.2142 69.762 69.4046C71.8847 69.6521 73.0006 67.8964 73.1365 66.7246C73.7133 61.6742 73.9631 56.5919 73.8842 51.5093C73.6862 38.9727 63.0842 28.6158 50.2504 28.4254ZM82.2518 43.8438C81.8887 42.2036 80.2827 41.1524 78.6196 41.5244C76.9768 41.8875 75.9384 43.5125 76.3014 45.1565C76.8994 47.8746 76.9248 49.9059 76.8981 52.9769C76.8842 54.6615 78.2375 56.0352 79.9197 56.0491H79.945C81.617 56.0491 82.978 54.7021 82.992 53.0276C83.0148 50.2118 83.0427 47.4277 82.2518 43.8438ZM77.1584 32.3267C70.9757 23.5174 60.8587 18.1638 50.0942 18.0025C41.234 17.8959 33.0391 21.1624 26.944 27.26C21.0571 33.1544 17.8845 40.9836 18.0166 49.313L18.0013 52.0387C17.9518 53.7208 19.2747 55.1249 20.9568 55.1731C20.986 55.1757 21.0178 55.1757 21.0483 55.1757C22.6885 55.1757 24.0431 53.8681 24.0914 52.2177L24.1117 49.2165C24.0063 42.5515 26.5441 36.2851 31.2567 31.57C36.1774 26.6442 42.8527 23.9947 50.0053 24.0976C58.8223 24.2283 67.1099 28.612 72.1742 35.8268C73.1403 37.2055 75.0382 37.5343 76.417 36.5707C77.7932 35.6033 78.1258 33.7028 77.1584 32.3267Z" fill="white"/>
</svg>
