<svg width="100" height="100" viewBox="0 0 100 100" fill="none" xmlns="http://www.w3.org/2000/svg">
<rect width="100" height="100" rx="50" fill="#28A0CF"/>
<path d="M48.3738 42.7772C46.3918 41.7861 44.0625 41.6835 42.0516 42.3973C46.2123 42.3973 49.0055 44.3968 50.4088 47.3364C51.2463 49.0843 49.9061 51.0542 48.1025 51.0542C49.9022 51.0542 51.2481 53.0206 50.4088 54.7721C48.9708 57.7844 45.9046 59.7383 42.5672 59.7383C42.5128 59.7383 33.3415 58.897 33.3415 58.897L26.8566 62.1535C25.9402 62.6118 24.9215 62.1906 24.5231 61.3937L20.1817 52.7096C19.7747 51.8683 20.0732 50.8642 20.86 50.4029L26.5311 47.1735L30.5469 39.9278C31.1709 34.3374 33.9386 29.2083 38.3343 25.5991C39.4467 24.6764 41.102 24.8392 41.9974 25.9519C42.9198 27.0646 42.7572 28.6928 41.6446 29.6156C40.4237 30.6467 39.3382 31.8137 38.4699 33.0892C40.5863 31.6508 43.0284 30.674 45.7147 30.3483C47.1527 30.1583 48.4552 31.1623 48.618 32.6007C48.8079 34.039 47.8039 35.3416 46.3658 35.5044C44.792 35.6944 43.3268 36.2371 42.0516 36.997C44.6018 36.4391 47.7852 36.6906 50.653 38.0825C51.9554 38.7337 52.4981 40.2806 51.8468 41.5832C51.2229 42.8586 49.6491 43.4013 48.3738 42.7772ZM45.7147 49.5616C45.1178 48.3404 43.9238 47.5805 42.5671 47.5805C42.1106 47.5791 41.6583 47.6681 41.2363 47.8422C40.8143 48.0163 40.4308 48.2721 40.108 48.5949C39.7852 48.9177 39.5295 49.3012 39.3554 49.7233C39.1814 50.1453 39.0925 50.5976 39.094 51.0541C39.094 53.1467 40.833 54.5278 42.5671 54.5278C43.9238 54.5278 45.1178 53.7679 45.7147 52.5467C46.1488 51.624 47.0442 51.0813 47.9939 51.0541C47.0442 51.0271 46.1488 50.4843 45.7147 49.5616ZM82.3183 45.9251C82.7253 46.7664 82.4268 47.7705 81.64 48.2319L75.969 51.4613L71.9531 58.707C71.3291 64.2973 68.5614 69.4264 64.1657 73.0357C63.0982 73.9255 61.451 73.831 60.5027 72.6828C59.5802 71.5702 59.7429 69.9419 60.8555 69.0192C62.0765 67.988 63.1618 66.821 64.0301 65.5455C61.9137 66.9839 59.4716 67.9608 56.7854 68.2865C55.8068 68.5312 54.0947 67.7354 53.8821 66.034C53.6921 64.5957 54.6961 63.2931 56.1342 63.1303C57.708 62.9403 59.1733 62.3976 60.4485 61.6377C57.8983 62.1956 54.7149 61.9442 51.847 60.5523C50.5447 59.901 50.002 58.3541 50.6532 57.0515C51.2772 55.776 52.851 55.2332 54.1264 55.8575C56.1083 56.8486 58.4376 56.9511 60.4486 56.2373C56.2878 56.2373 53.4946 54.2378 52.0913 51.2983C51.2538 49.5503 52.5941 47.5804 54.3977 47.5804C52.598 47.5804 51.2521 45.614 52.0913 43.8625C53.4617 40.9918 56.392 38.8931 60.0958 38.8963L69.1586 39.7376L75.6436 36.4811C76.5623 36.0217 77.5799 36.4465 77.977 37.2409L82.3183 45.9251ZM59.9328 44.107C58.5761 44.107 57.3821 44.8668 56.7853 46.088C56.3511 47.0108 55.4558 47.5534 54.5061 47.5806C55.4558 47.6077 56.3511 48.1505 56.7853 49.0732C57.3821 50.2944 58.5761 51.0542 59.9328 51.0542C60.3894 51.0556 60.8416 50.9667 61.2637 50.7926C61.6857 50.6185 62.0691 50.3626 62.3919 50.0398C62.7147 49.717 62.9705 49.3335 63.1445 48.9115C63.3185 48.4894 63.4074 48.0371 63.406 47.5806C63.406 45.4879 61.6669 44.107 59.9328 44.107Z" fill="white"/>
</svg>
