<svg width="100" height="100" viewBox="0 0 100 100" fill="none" xmlns="http://www.w3.org/2000/svg">
<rect width="100" height="100" rx="50" transform="matrix(-1 0 0 1 100 0)" fill="#28A0CF"/>
<path d="M81.0632 53.7355H52.7106L71.5928 73.3444C72.3145 74.0939 73.5022 74.1547 74.2442 73.4288C78.8683 68.9047 82.049 62.806 82.9821 55.9504C83.1422 54.7766 82.2043 53.7355 81.0632 53.7355ZM79.1718 45.6949C78.1872 30.8719 66.7812 19.0269 52.5075 18.0045C51.4178 17.9263 50.5002 18.8805 50.5002 20.0146V47.7795H77.2373C78.3294 47.7795 79.247 46.8266 79.1718 45.6949ZM44.7649 53.7355V24.2918C44.7649 23.1068 43.7624 22.1327 42.6333 22.299C28.3943 24.3886 17.5104 37.3069 18.017 52.7888C18.5379 68.6888 31.7207 81.7275 47.0387 81.5277C53.0607 81.4496 58.6251 79.4344 63.2002 76.0643C64.1441 75.3695 64.2063 73.9264 63.3878 73.0764L44.7649 53.7355Z" fill="white"/>
</svg>
